<?xml version="1.0" standalone="no"?>
<!DOCTYPE svg PUBLIC "-//W3C//DTD SVG 20010904//EN"
 "http://www.w3.org/TR/2001/REC-SVG-20010904/DTD/svg10.dtd">
<svg version="1.0" xmlns="http://www.w3.org/2000/svg"
 width="979.000000pt" height="857.000000pt" viewBox="0 0 979.000000 857.000000"
 preserveAspectRatio="xMidYMid meet">

<g transform="translate(0.000000,857.000000) scale(0.100000,-0.100000)"
fill="#000000" stroke="none">
<path d="M8780 8465 c0 -9 5 -15 11 -13 6 2 11 8 11 13 0 5 -5 11 -11 13 -6 2
-11 -4 -11 -13z"/>
<path d="M9017 8474 c-8 -8 1 -24 14 -24 5 0 9 7 9 15 0 15 -12 20 -23 9z"/>
<path d="M8062 8399 c4 -89 25 -108 30 -27 l3 53 18 -53 c11 -29 24 -51 30
-49 6 2 19 25 28 53 l17 49 1 -53 c1 -38 5 -52 14 -50 8 3 13 30 15 77 3 70 2
72 -19 69 -16 -2 -26 -15 -37 -45 -7 -24 -17 -43 -21 -43 -4 0 -14 19 -22 43
-11 30 -22 43 -38 45 -21 3 -22 1 -19 -69z"/>
<path d="M8480 8445 c0 -8 -5 -15 -12 -15 -9 0 -9 -3 0 -12 7 -7 12 -26 12
-44 0 -34 22 -60 40 -49 9 5 9 10 1 18 -15 15 -14 60 1 75 9 9 9 12 0 12 -7 0
-12 7 -12 15 0 8 -7 15 -15 15 -8 0 -15 -7 -15 -15z"/>
<path d="M9299 8443 c-3 -35 3 -88 12 -105 12 -22 39 -24 39 -3 0 8 -4 15 -10
15 -14 0 -13 57 1 62 8 3 8 10 -2 26 -17 26 -38 29 -40 5z"/>
<path d="M8259 8420 c-20 -16 -21 -19 -7 -20 9 0 20 5 23 10 7 12 25 4 25 -11
0 -5 -8 -9 -19 -9 -10 0 -24 -7 -32 -16 -20 -25 1 -49 45 -50 l36 -1 0 48 c0
38 -4 51 -19 59 -26 13 -25 13 -52 -10z m39 -61 c-2 -6 -8 -10 -13 -10 -5 0
-11 4 -13 10 -2 6 4 11 13 11 9 0 15 -5 13 -11z"/>
<path d="M8388 8432 c-27 -3 -28 -6 -28 -58 0 -64 17 -73 22 -12 2 31 8 44 20
46 13 3 17 -6 20 -39 5 -63 28 -63 28 0 0 56 -14 70 -62 63z"/>
<path d="M8560 8420 c-11 -11 -20 -29 -20 -40 0 -20 32 -60 49 -60 17 0 41 12
41 21 0 5 -11 9 -24 9 -14 0 -28 5 -31 10 -4 6 8 10 29 10 29 0 36 4 36 19 0
18 -34 51 -52 51 -5 0 -17 -9 -28 -20z m50 -20 c0 -5 -9 -10 -21 -10 -11 0
-17 5 -14 10 3 6 13 10 21 10 8 0 14 -4 14 -10z"/>
<path d="M8688 8432 c-27 -3 -28 -6 -28 -58 0 -67 23 -71 28 -6 2 28 8 42 17
42 9 0 15 -14 17 -42 5 -62 28 -62 28 1 0 56 -14 70 -62 63z"/>
<path d="M8857 8433 c-27 -4 -28 -6 -25 -55 4 -68 28 -79 28 -13 0 39 3 46 18
43 12 -2 18 -15 20 -46 2 -23 7 -42 12 -42 5 0 10 19 12 42 2 31 8 44 21 46
14 3 17 -4 17 -42 0 -34 4 -46 15 -46 24 0 21 96 -3 109 -10 5 -24 6 -32 1 -8
-5 -21 -5 -31 1 -10 5 -19 8 -21 8 -2 -1 -16 -4 -31 -6z"/>
<path d="M9097 8432 c-24 -5 -39 -46 -27 -76 11 -31 42 -41 72 -24 23 13 23
13 -7 16 -46 5 -55 22 -11 22 35 0 37 2 34 26 -3 28 -29 43 -61 36z m38 -32
c4 -6 -5 -10 -20 -10 -15 0 -24 4 -20 10 3 6 12 10 20 10 8 0 17 -4 20 -10z"/>
<path d="M9208 8433 c-27 -4 -28 -7 -28 -59 0 -41 4 -54 15 -54 11 0 15 12 15
45 0 38 3 45 20 45 17 0 20 -7 20 -46 0 -32 4 -44 13 -41 17 6 15 96 -4 108
-8 5 -16 8 -19 7 -3 0 -17 -3 -32 -5z"/>
<path d="M9381 8421 c-26 -26 -27 -55 -1 -81 23 -23 39 -25 65 -6 19 14 26 70
9 85 -22 21 -53 22 -73 2z m54 -41 c0 -16 -6 -26 -18 -28 -19 -4 -32 20 -23
44 9 25 41 13 41 -16z"/>
<path d="M8780 8374 c0 -73 24 -70 28 4 2 42 0 52 -12 52 -13 0 -16 -12 -16
-56z"/>
<path d="M9012 8378 c4 -74 28 -77 28 -4 0 44 -3 56 -16 56 -12 0 -14 -10 -12
-52z"/>
<path d="M8200 8155 c0 -60 3 -75 15 -75 9 0 15 9 15 25 0 19 5 25 21 25 37 0
59 19 59 50 0 35 -23 50 -74 50 l-36 0 0 -75z m80 25 c0 -15 -7 -20 -25 -20
-18 0 -25 5 -25 20 0 15 7 20 25 20 18 0 25 -5 25 -20z"/>
<path d="M9170 8206 c0 -8 -6 -17 -12 -19 -10 -4 -10 -8 -1 -14 6 -4 13 -26
15 -48 2 -33 7 -41 26 -43 12 -2 22 1 22 7 0 6 -4 11 -10 11 -15 0 -12 67 3
74 10 5 10 7 0 12 -7 3 -13 12 -13 20 0 8 -7 14 -15 14 -8 0 -15 -6 -15 -14z"/>
<path d="M8342 8178 c-17 -17 -15 -73 2 -87 18 -15 68 -11 73 6 3 8 -6 11 -23
10 -15 -1 -29 4 -31 11 -3 8 7 12 31 12 38 0 43 8 26 41 -12 22 -59 26 -78 7z
m56 -26 c2 -7 -6 -12 -17 -12 -21 0 -27 11 -14 24 9 9 26 2 31 -12z"/>
<path d="M8450 8133 c0 -29 5 -53 10 -53 6 0 10 16 10 35 0 24 6 37 20 45 29
16 24 29 -10 28 -29 -1 -30 -2 -30 -55z"/>
<path d="M8520 8134 c0 -40 4 -54 14 -54 10 0 16 14 18 43 2 29 8 42 18 42 10
0 16 -13 18 -42 4 -48 22 -59 22 -14 0 39 9 61 26 61 10 0 14 -13 14 -45 0
-33 4 -45 15 -45 11 0 15 11 15 43 0 23 -4 47 -8 53 -4 7 -37 12 -79 11 l-73
0 0 -53z"/>
<path d="M8709 8174 c-12 -15 -10 -16 19 -10 41 10 42 -6 1 -21 -24 -9 -30
-17 -27 -35 2 -19 10 -23 46 -26 l42 -3 0 49 c0 36 -4 52 -16 56 -27 10 -51 7
-65 -10z m51 -59 c0 -8 -7 -15 -15 -15 -8 0 -15 7 -15 15 0 8 7 15 15 15 8 0
15 -7 15 -15z"/>
<path d="M8820 8133 c0 -63 17 -72 22 -11 2 31 8 44 21 46 14 3 17 -4 17 -42
0 -34 4 -46 15 -46 11 0 15 11 15 43 0 56 -9 67 -53 65 l-37 -1 0 -54z"/>
<path d="M8946 8174 c-36 -35 -7 -98 42 -92 35 4 41 28 6 25 -15 -1 -29 4 -31
11 -3 8 7 12 31 12 38 0 43 8 26 41 -13 23 -53 25 -74 3z m52 -22 c2 -7 -6
-12 -17 -12 -21 0 -27 11 -14 24 9 9 26 2 31 -12z"/>
<path d="M9050 8133 c0 -63 17 -72 22 -11 2 31 8 44 21 46 14 3 17 -4 17 -42
0 -34 4 -46 15 -46 11 0 15 11 15 43 0 56 -9 67 -53 65 l-37 -1 0 -54z"/>
<path d="M9246 8174 c-36 -35 -7 -98 42 -92 35 4 41 28 6 25 -15 -1 -29 4 -31
11 -3 8 7 12 31 12 38 0 43 8 26 41 -13 23 -53 25 -74 3z m52 -22 c2 -7 -6
-12 -17 -12 -21 0 -27 11 -14 24 9 9 26 2 31 -12z"/>
<path d="M7597 8033 c-11 -3 -16 -11 -13 -19 3 -8 -1 -14 -9 -14 -17 0 -33
-27 -29 -49 11 -59 16 -72 34 -81 19 -10 20 -9 14 15 -5 20 -3 24 10 19 12 -5
15 0 11 29 -4 29 -1 36 20 45 29 13 31 24 9 46 -16 17 -17 17 -47 9z"/>
<path d="M7863 7872 l-142 -25 35 -42 34 -42 -54 -44 c-52 -42 -55 -46 -56
-91 0 -26 -5 -58 -11 -71 -10 -22 -16 -24 -57 -20 -26 3 -57 11 -69 19 -19 12
-22 11 -27 -11 -3 -13 -19 -31 -34 -41 -36 -21 -34 -64 4 -64 29 0 31 -3 43
-80 l10 -64 -47 -88 -47 -88 -57 0 -58 0 -2 -127 c0 -71 -1 -134 -1 -140 1
-10 -42 -13 -183 -13 l-184 0 -11 28 c-6 15 -14 48 -19 73 -5 25 -14 57 -21
72 -12 26 -15 27 -91 27 l-78 0 91 113 c51 61 95 116 99 120 4 4 42 -33 85
-83 55 -64 84 -90 100 -90 22 0 235 167 243 190 3 9 -18 14 -46 11 -7 -1 -16
7 -20 18 -6 17 -16 12 -90 -51 l-83 -70 -42 49 c-104 119 -133 146 -154 139
-23 -8 -363 -417 -363 -438 0 -4 14 -17 31 -29 l32 -22 18 24 c10 13 19 19 19
13 0 -23 79 -117 130 -155 119 -89 228 -114 500 -114 206 0 316 15 408 55 l42
19 0 154 c0 188 -11 227 -63 227 -19 0 -37 3 -40 6 -4 4 23 44 58 90 36 45 65
89 65 97 0 8 -18 55 -40 105 -22 49 -40 97 -40 106 0 15 2 15 25 0 24 -16 25
-16 18 1 -5 15 -3 17 13 11 16 -6 16 -4 -4 17 l-22 24 68 60 68 61 33 -40 c37
-43 42 -41 61 20 4 15 24 71 43 125 20 53 33 96 29 96 -4 -1 -71 -13 -149 -27z
m-214 -499 c17 -31 31 -60 31 -65 0 -4 -21 -41 -47 -82 -27 -41 -53 -82 -58
-91 -7 -11 -20 -16 -42 -13 l-31 3 54 74 54 73 0 79 c0 44 2 79 4 79 3 0 18
-26 35 -57z m-28 -274 l24 -20 -30 17 c-39 24 -40 24 -28 24 6 0 21 -9 34 -21z
m-98 -46 c-7 -2 -19 -2 -25 0 -7 3 -2 5 12 5 14 0 19 -2 13 -5z"/>
<path d="M7460 7804 c-29 -13 -43 -14 -81 -4 -30 7 -54 8 -71 1 -33 -12 -44
-42 -22 -58 14 -10 22 -9 45 8 24 17 38 19 82 14 42 -5 56 -4 66 9 15 18 37
21 45 7 7 -11 -77 -60 -116 -68 -16 -3 -28 -12 -28 -19 0 -7 -9 -18 -21 -25
-17 -9 -20 -17 -15 -47 3 -21 7 -44 7 -52 2 -22 27 -47 54 -54 19 -5 33 2 62
28 21 19 68 63 105 97 38 34 73 76 80 95 6 18 19 35 27 37 10 3 7 5 -7 6 -12
0 -41 10 -63 22 -31 15 -44 17 -54 9 -10 -8 -19 -8 -34 -1 -24 13 -18 14 -61
-5z"/>
<path d="M4743 7680 c0 -36 2 -50 4 -32 2 17 2 47 0 65 -2 17 -4 3 -4 -33z"/>
<path d="M4890 7680 c0 -29 2 -51 4 -49 8 8 10 88 3 95 -4 4 -7 -17 -7 -46z"/>
<path d="M5109 7703 c-3 -31 0 -95 5 -100 3 -4 6 19 6 50 0 32 -2 57 -5 57 -3
0 -5 -3 -6 -7z"/>
<path d="M5153 7665 c0 -27 2 -38 4 -22 2 15 2 37 0 50 -2 12 -4 0 -4 -28z"/>
<path d="M5413 7665 c0 -27 2 -38 4 -22 2 15 2 37 0 50 -2 12 -4 0 -4 -28z"/>
<path d="M5010 7679 c0 -7 -14 -10 -35 -7 -30 3 -35 1 -34 -17 0 -11 3 -14 6
-7 2 6 20 12 39 12 24 0 34 5 34 15 0 8 -2 15 -5 15 -3 0 -5 -5 -5 -11z"/>
<path d="M5270 7681 c0 -5 -10 -12 -22 -14 -23 -4 -23 -4 1 -6 18 -1 22 -5 18
-21 -3 -11 -1 -20 4 -20 5 0 9 16 9 35 0 19 -2 35 -5 35 -3 0 -5 -4 -5 -9z"/>
<path d="M5623 7655 c0 -22 2 -30 4 -17 2 12 2 30 0 40 -3 9 -5 -1 -4 -23z"/>
<path d="M5042 7660 c0 -14 2 -19 5 -12 2 6 2 18 0 25 -3 6 -5 1 -5 -13z"/>
<path d="M5522 7660 c0 -14 2 -19 5 -12 2 6 2 18 0 25 -3 6 -5 1 -5 -13z"/>
<path d="M5462 7624 c9 -9 21 -15 27 -13 6 2 -2 10 -17 17 -25 11 -25 11 -10
-4z"/>
<path d="M5218 7618 c5 -5 16 -8 23 -6 8 3 3 7 -10 11 -17 4 -21 3 -13 -5z"/>
<path d="M4978 7613 c7 -3 16 -2 19 1 4 3 -2 6 -13 5 -11 0 -14 -3 -6 -6z"/>
<path d="M5338 7613 c7 -3 16 -2 19 1 4 3 -2 6 -13 5 -11 0 -14 -3 -6 -6z"/>
<path d="M5559 7503 c-2 -16 -1 -48 2 -73 5 -39 6 -35 7 28 2 73 -3 95 -9 45z"/>
<path d="M4730 7483 c8 -3 22 -11 30 -17 13 -10 13 -9 1 7 -7 9 -21 17 -30 16
-13 0 -14 -1 -1 -6z"/>
<path d="M4870 7483 c8 -3 22 -11 30 -17 13 -10 13 -9 1 7 -7 9 -21 17 -30 16
-13 0 -14 -1 -1 -6z"/>
<path d="M5353 7440 c0 -30 2 -43 4 -27 2 15 2 39 0 55 -2 15 -4 2 -4 -28z"/>
<path d="M5603 7440 c0 -30 2 -43 4 -27 2 15 2 39 0 55 -2 15 -4 2 -4 -28z"/>
<path d="M5649 7473 c-12 -16 -12 -17 1 -7 8 6 22 14 30 17 13 5 12 6 -1 6 -9
1 -23 -7 -30 -16z"/>
<path d="M5778 7480 c24 -10 31 -57 12 -76 -7 -7 -6 -11 5 -11 11 0 15 11 15
37 0 39 -14 60 -39 59 -10 0 -7 -4 7 -9z"/>
<path d="M4663 7435 c0 -27 2 -38 4 -22 2 15 2 37 0 50 -2 12 -4 0 -4 -28z"/>
<path d="M4700 7466 c0 -8 4 -17 9 -20 5 -4 7 3 4 14 -6 23 -13 26 -13 6z"/>
<path d="M5393 7435 c0 -27 2 -38 4 -22 2 15 2 37 0 50 -2 12 -4 0 -4 -28z"/>
<path d="M4573 7453 c9 -2 25 -2 35 0 9 3 1 5 -18 5 -19 0 -27 -2 -17 -5z"/>
<path d="M5492 7440 c0 -14 2 -19 5 -12 2 6 2 18 0 25 -3 6 -5 1 -5 -13z"/>
<path d="M7428 7453 c7 -3 16 -2 19 1 4 3 -2 6 -13 5 -11 0 -14 -3 -6 -6z"/>
<path d="M4831 7434 c0 -11 3 -14 6 -6 3 7 2 16 -1 19 -3 4 -6 -2 -5 -13z"/>
<path d="M4933 7424 c-3 -8 -2 -19 3 -24 5 -5 9 1 9 16 0 28 -3 30 -12 8z"/>
<path d="M4756 7403 c-6 -14 -5 -15 5 -6 7 7 10 15 7 18 -3 3 -9 -2 -12 -12z"/>
<path d="M7310 7356 c0 -2 9 -6 20 -9 11 -3 20 -1 20 4 0 5 -9 9 -20 9 -11 0
-20 -2 -20 -4z"/>
<path d="M7450 7339 c0 -5 9 -9 20 -9 11 0 20 2 20 4 0 2 -9 6 -20 9 -11 3
-20 1 -20 -4z"/>
<path d="M5130 7131 c-59 -102 -59 -101 -11 -101 l41 0 0 -390 c0 -340 2 -390
15 -390 13 0 15 50 15 390 l0 390 41 0 c22 0 39 3 37 8 -9 22 -90 162 -93 162
-2 0 -22 -31 -45 -69z"/>
<path d="M6588 6443 c7 -3 16 -2 19 1 4 3 -2 6 -13 5 -11 0 -14 -3 -6 -6z"/>
<path d="M7033 6380 c0 -36 2 -50 4 -32 2 17 2 47 0 65 -2 17 -4 3 -4 -33z"/>
<path d="M7505 6412 c0 -23 -5 -28 -35 -32 l-35 -6 31 -5 c23 -4 35 0 43 13
13 21 14 45 3 52 -4 2 -8 -8 -7 -22z"/>
<path d="M6773 6380 c0 -30 2 -43 4 -27 2 15 2 39 0 55 -2 15 -4 2 -4 -28z"/>
<path d="M7903 6375 c0 -33 2 -45 4 -27 2 18 2 45 0 60 -2 15 -4 0 -4 -33z"/>
<path d="M6542 6380 c0 -19 2 -27 5 -17 2 9 2 25 0 35 -3 9 -5 1 -5 -18z"/>
<path d="M7655 6399 c-4 -6 -5 -12 -2 -15 2 -3 7 2 10 11 7 17 1 20 -8 4z"/>
<path d="M8022 6398 c-7 -7 -11 -23 -11 -37 l2 -26 4 25 c3 14 10 31 15 38 13
15 6 16 -10 0z"/>
<path d="M8076 6397 c3 -10 9 -15 12 -12 3 3 0 11 -7 18 -10 9 -11 8 -5 -6z"/>
<path d="M7551 6374 c0 -11 3 -14 6 -6 3 7 2 16 -1 19 -3 4 -6 -2 -5 -13z"/>
<path d="M7142 6360 c0 -14 2 -19 5 -12 2 6 2 18 0 25 -3 6 -5 1 -5 -13z"/>
<path d="M6830 6355 c-11 -13 -11 -18 0 -28 10 -10 11 -9 5 2 -5 9 -1 19 10
28 11 7 14 13 8 13 -6 0 -16 -7 -23 -15z"/>
<path d="M6660 6341 c0 -6 4 -13 10 -16 6 -3 7 1 4 9 -7 18 -14 21 -14 7z"/>
<path d="M7550 6341 c0 -6 4 -13 10 -16 6 -3 7 1 4 9 -7 18 -14 21 -14 7z"/>
<path d="M7323 6325 c-3 -9 -3 -18 -1 -21 3 -3 8 4 11 16 6 23 -1 27 -10 5z"/>
<path d="M7705 6330 c-3 -5 -1 -10 4 -10 6 0 11 5 11 10 0 6 -2 10 -4 10 -3 0
-8 -4 -11 -10z"/>
<path d="M7533 6160 c0 -41 2 -58 4 -37 2 20 2 54 0 75 -2 20 -4 3 -4 -38z"/>
<path d="M7048 6199 c-8 -23 8 -103 20 -105 7 -1 8 0 2 3 -12 6 -13 80 -1 85
5 2 3 8 -4 15 -9 8 -15 9 -17 2z"/>
<path d="M6943 6140 c0 -30 2 -43 4 -27 2 15 2 39 0 55 -2 15 -4 2 -4 -28z"/>
<path d="M6970 6186 c0 -2 9 -6 20 -9 11 -3 18 -1 14 4 -5 9 -34 13 -34 5z"/>
<path d="M7112 6178 c-7 -7 -12 -23 -11 -37 0 -15 3 -20 6 -13 2 6 20 12 39
12 19 0 34 4 34 8 0 4 -16 6 -36 4 -28 -3 -35 -1 -32 9 3 8 17 14 31 14 14 -1
23 3 21 7 -8 12 -38 10 -52 -4z"/>
<path d="M7210 6175 c-7 -9 -10 -18 -6 -22 3 -3 6 -1 6 6 0 6 10 16 23 21 15
6 17 9 6 9 -9 1 -22 -6 -29 -14z"/>
<path d="M7375 6180 c-3 -6 1 -7 9 -4 18 7 21 14 7 14 -6 0 -13 -4 -16 -10z"/>
<path d="M7475 6180 c-3 -6 1 -7 9 -4 18 7 21 14 7 14 -6 0 -13 -4 -16 -10z"/>
<path d="M7579 6173 c-11 -15 -11 -16 1 -5 20 17 47 15 59 -5 6 -10 11 -13 11
-7 1 32 -50 45 -71 17z"/>
<path d="M7685 6180 c-3 -6 1 -7 9 -4 18 7 21 14 7 14 -6 0 -13 -4 -16 -10z"/>
<path d="M7408 6143 c7 -3 16 -2 19 1 4 3 -2 6 -13 5 -11 0 -14 -3 -6 -6z"/>
<path d="M7365 6129 c-4 -6 -5 -12 -2 -15 2 -3 7 2 10 11 7 17 1 20 -8 4z"/>
<path d="M5165 5991 c-132 -76 -368 -213 -525 -304 l-285 -165 -3 -450 c-2
-439 -2 -451 17 -457 14 -4 76 26 210 104 173 100 190 108 193 88 4 -27 159
-116 202 -117 27 0 145 58 209 102 47 33 34 63 -48 113 -112 68 -110 72 95
190 202 115 213 124 208 153 -3 20 -44 -2 -436 -229 -349 -201 -436 -248 -448
-238 -12 9 -14 68 -14 336 0 199 4 322 9 318 5 -3 148 75 318 173 169 98 406
234 525 302 200 115 217 127 218 153 0 15 -4 27 -9 27 -5 0 -40 -18 -77 -39
-38 -22 -72 -37 -76 -35 -4 3 -8 24 -8 48 0 37 -13 66 -29 66 -4 0 -114 -63
-246 -139z m365 24 c0 -5 -50 -37 -132 -84 -90 -50 -68 -18 25 38 75 45 107
59 107 46z m-190 -70 c0 -2 -13 -11 -30 -20 -38 -19 -40 -11 -2 9 31 17 32 18
32 11z m-70 -40 c0 -2 -13 -11 -30 -20 -38 -19 -40 -11 -2 9 31 17 32 18 32
11z m-70 -40 c0 -2 -10 -9 -22 -15 -22 -11 -22 -10 -4 4 21 17 26 19 26 11z
m-70 -40 c0 -2 -10 -9 -22 -15 -22 -11 -22 -10 -4 4 21 17 26 19 26 11z m-120
-70 c0 -2 -10 -9 -22 -15 -22 -11 -22 -10 -4 4 21 17 26 19 26 11z m-140 -80
c0 -2 -10 -9 -22 -15 -22 -11 -22 -10 -4 4 21 17 26 19 26 11z m-50 -30 c0 -2
-13 -11 -30 -20 -38 -19 -40 -11 -2 9 31 17 32 18 32 11z m-70 -40 c0 -2 -13
-11 -30 -20 -38 -19 -40 -11 -2 9 31 17 32 18 32 11z m-100 -59 c0 -2 -7 -7
-16 -10 -8 -3 -12 -2 -9 4 6 10 25 14 25 6z m-40 -21 c0 -2 -10 -9 -22 -15
-22 -11 -22 -10 -4 4 21 17 26 19 26 11z"/>
<path d="M7200 6123 c0 -6 8 -17 18 -24 16 -13 16 -13 2 6 -8 11 -16 22 -17
24 -2 2 -3 0 -3 -6z"/>
<path d="M7628 6108 c-10 -10 -14 -18 -9 -18 10 0 36 29 30 34 -2 1 -12 -6
-21 -16z"/>
<path d="M7570 6116 c0 -2 8 -10 18 -17 15 -13 16 -12 3 4 -13 16 -21 21 -21
13z"/>
<path d="M7118 6098 c6 -6 18 -8 28 -6 14 3 12 5 -9 10 -19 3 -25 2 -19 -4z"/>
<path d="M7478 6098 c6 -6 18 -8 28 -6 14 3 12 5 -9 10 -19 3 -25 2 -19 -4z"/>
<path d="M7687 6098 c2 -5 13 -8 23 -8 10 0 21 3 23 8 3 4 -8 7 -23 7 -15 0
-26 -3 -23 -7z"/>
<path d="M7388 6093 c7 -3 16 -2 19 1 4 3 -2 6 -13 5 -11 0 -14 -3 -6 -6z"/>
<path d="M7276 5812 c-25 -43 -46 -82 -46 -85 0 -4 18 -7 40 -7 l40 0 0 -386
0 -385 -57 32 c-32 18 -67 38 -78 46 -30 20 -35 16 -35 -27 l0 -40 -390 0
-390 0 0 -21 0 -22 390 8 390 7 0 -41 c0 -23 2 -41 5 -41 3 0 41 20 84 45 43
25 85 45 94 45 16 0 17 34 17 390 l0 390 41 0 41 0 -38 68 c-64 115 -55 113
-108 24z"/>
<path d="M5127 5618 l-37 -22 2 -92 1 -93 37 19 37 19 0 95 c0 53 0 96 -1 96
-1 0 -18 -10 -39 -22z"/>
<path d="M5373 5408 c-18 -11 -33 -26 -33 -34 0 -18 2 -18 44 7 20 12 36 27
36 35 0 18 -8 17 -47 -8z"/>
<path d="M5122 5380 l-33 -20 2 -130 c0 -72 3 -130 6 -130 3 0 21 10 40 21 23
15 33 27 30 39 -3 12 8 24 39 41 l44 24 0 72 c0 40 -3 73 -8 73 -4 0 -23 -11
-43 -24 l-35 -24 3 39 c3 45 0 46 -45 19z"/>
<path d="M4698 5372 c-16 -10 -28 -25 -28 -35 0 -18 2 -18 33 2 17 11 33 27
35 36 4 19 -5 18 -40 -3z"/>
<path d="M5772 5358 c-17 -17 -15 -35 4 -42 9 -3 12 -11 8 -18 -6 -10 -4 -11
7 0 18 16 29 15 29 -3 0 -8 -4 -15 -10 -15 -17 0 -11 -29 8 -39 13 -7 27 -6
45 4 23 12 27 12 27 0 0 -7 2 -19 5 -27 4 -10 -8 -13 -50 -12 -47 0 -55 -2
-55 -18 0 -27 -35 -91 -72 -134 -23 -26 -37 -35 -55 -31 -14 3 -23 -1 -23 -9
0 -7 -8 -12 -17 -11 -10 0 -31 -8 -47 -18 -28 -19 -28 -19 -7 -29 19 -8 21
-17 21 -81 0 -50 4 -74 13 -78 18 -7 97 42 97 60 0 8 7 13 18 11 12 -2 18 -14
20 -41 2 -25 10 -40 24 -48 24 -13 135 -6 150 9 18 18 5 204 -15 235 -16 25
-16 31 -1 83 8 30 13 62 10 70 -4 12 -1 14 14 9 18 -6 20 -2 20 53 0 56 -2 60
-41 95 -31 29 -49 37 -78 37 -20 0 -42 -5 -49 -12z"/>
<path d="M3493 5220 c0 -41 2 -58 4 -37 2 20 2 54 0 75 -2 20 -4 3 -4 -38z"/>
<path d="M5612 5283 c-34 -7 -73 -46 -61 -64 7 -12 9 -11 9 3 0 11 15 25 38
35 20 9 40 19 43 20 4 2 10 -8 13 -23 4 -14 9 -24 12 -22 7 7 -14 58 -23 57
-5 -1 -18 -4 -31 -6z"/>
<path d="M2490 5243 c8 -3 22 -11 30 -17 13 -10 13 -9 1 7 -7 9 -21 17 -30 16
-13 0 -14 -1 -1 -6z"/>
<path d="M2773 5239 c11 -7 18 -24 19 -52 l1 -42 4 38 c4 38 -9 67 -31 67 -6
0 -3 -5 7 -11z"/>
<path d="M3199 5233 c-13 -17 -13 -17 6 -3 11 8 22 16 24 17 2 2 0 3 -6 3 -6
0 -17 -8 -24 -17z"/>
<path d="M2361 5193 c1 -53 6 -49 11 10 2 20 0 37 -4 37 -4 0 -8 -21 -7 -47z"/>
<path d="M2623 5195 c0 -27 2 -38 4 -22 2 15 2 37 0 50 -2 12 -4 0 -4 -28z"/>
<path d="M2663 5195 c0 -27 2 -38 4 -22 2 15 2 37 0 50 -2 12 -4 0 -4 -28z"/>
<path d="M2983 5175 c0 -38 2 -53 4 -32 2 20 2 52 0 70 -2 17 -4 1 -4 -38z"/>
<path d="M3393 5225 c-3 -9 -3 -18 -1 -21 3 -3 8 4 11 16 6 23 -1 27 -10 5z"/>
<path d="M2423 5190 c0 -25 2 -35 4 -22 2 12 2 32 0 45 -2 12 -4 2 -4 -23z"/>
<path d="M2460 5221 c0 -6 4 -13 10 -16 6 -3 7 1 4 9 -7 18 -14 21 -14 7z"/>
<path d="M2902 5200 c0 -14 2 -19 5 -12 2 6 2 18 0 25 -3 6 -5 1 -5 -13z"/>
<path d="M3051 5194 c0 -11 3 -14 6 -6 3 7 2 16 -1 19 -3 4 -6 -2 -5 -13z"/>
<path d="M4788 5188 c-33 -19 -52 -48 -30 -48 18 0 72 41 72 55 0 19 3 19 -42
-7z"/>
<path d="M3083 5184 c-3 -8 -2 -19 3 -24 5 -5 9 1 9 16 0 28 -3 30 -12 8z"/>
<path d="M3243 5184 c-3 -8 -2 -19 3 -24 5 -5 9 1 9 16 0 28 -3 30 -12 8z"/>
<path d="M5561 5184 c0 -11 3 -14 6 -6 3 7 2 16 -1 19 -3 4 -6 -2 -5 -13z"/>
<path d="M2517 5171 c-4 -17 -3 -21 5 -13 5 5 8 16 6 23 -3 8 -7 3 -11 -10z"/>
<path d="M2560 5171 c0 -6 4 -13 10 -16 6 -3 7 1 4 9 -7 18 -14 21 -14 7z"/>
<path d="M5690 5151 c-14 -5 -35 -14 -46 -21 -20 -12 -20 -15 -5 -32 23 -27
34 -23 64 22 14 22 23 40 19 39 -4 0 -18 -4 -32 -8z"/>
<path d="M4702 5058 c-17 -11 -32 -26 -32 -34 0 -12 5 -12 31 1 28 15 47 40
37 50 -2 2 -18 -5 -36 -17z"/>
<path d="M1939 5043 c-13 -15 -12 -15 9 -2 31 20 55 2 63 -47 l6 -39 2 36 c2
57 -49 90 -80 52z"/>
<path d="M3147 5053 c19 -4 23 -12 26 -66 l3 -62 2 62 c2 55 4 62 25 66 12 2
0 4 -28 4 -27 0 -40 -2 -28 -4z"/>
<path d="M3513 4995 c0 -33 2 -45 4 -27 2 18 2 45 0 60 -2 15 -4 0 -4 -33z"/>
<path d="M1922 4990 c0 -19 2 -27 5 -17 2 9 2 25 0 35 -3 9 -5 1 -5 -18z"/>
<path d="M2053 4975 c0 -27 2 -38 4 -22 2 15 2 37 0 50 -2 12 -4 0 -4 -28z"/>
<path d="M2115 5009 c-4 -6 -5 -12 -2 -15 2 -3 7 2 10 11 7 17 1 20 -8 4z"/>
<path d="M2222 5008 c-18 -18 -15 -54 6 -69 14 -11 15 -11 5 1 -16 18 -17 52
-1 68 7 7 10 12 7 12 -3 0 -10 -5 -17 -12z"/>
<path d="M2580 4972 l5 -47 3 39 c2 21 0 42 -5 47 -4 4 -6 -13 -3 -39z"/>
<path d="M3403 4975 c0 -27 2 -38 4 -22 2 15 2 37 0 50 -2 12 -4 0 -4 -28z"/>
<path d="M3673 4975 c0 -27 2 -38 4 -22 2 15 2 37 0 50 -2 12 -4 0 -4 -28z"/>
<path d="M2893 4965 c0 -22 2 -30 4 -17 2 12 2 30 0 40 -3 9 -5 -1 -4 -23z"/>
<path d="M2721 4974 c0 -11 3 -14 6 -6 3 7 2 16 -1 19 -3 4 -6 -2 -5 -13z"/>
<path d="M2981 4974 c0 -11 3 -14 6 -6 3 7 2 16 -1 19 -3 4 -6 -2 -5 -13z"/>
<path d="M3061 4974 c0 -11 3 -14 6 -6 3 7 2 16 -1 19 -3 4 -6 -2 -5 -13z"/>
<path d="M3231 4974 c0 -11 3 -14 6 -6 3 7 2 16 -1 19 -3 4 -6 -2 -5 -13z"/>
<path d="M2110 4951 c0 -6 4 -13 10 -16 6 -3 7 1 4 9 -7 18 -14 21 -14 7z"/>
<path d="M2410 4951 c0 -6 4 -13 10 -16 6 -3 7 1 4 9 -7 18 -14 21 -14 7z"/>
<path d="M3626 4943 c-6 -14 -5 -15 5 -6 7 7 10 15 7 18 -3 3 -9 -2 -12 -12z"/>
<path d="M3770 4951 c0 -6 4 -13 10 -16 6 -3 7 1 4 9 -7 18 -14 21 -14 7z"/>
<path d="M2466 4942 c-3 -5 1 -9 9 -9 8 0 12 4 9 9 -3 4 -7 8 -9 8 -2 0 -6 -4
-9 -8z"/>
<path d="M5328 4787 c-30 -18 -38 -28 -38 -52 0 -24 7 -34 40 -52 49 -29 52
-29 100 2 55 35 56 71 0 103 -48 27 -55 27 -102 -1z"/>
<path d="M2847 4718 l-46 -83 39 -3 40 -3 0 -390 c0 -339 2 -389 15 -389 13 0
15 50 15 390 l0 390 41 0 c33 0 40 3 35 16 -7 19 -86 154 -90 154 -1 0 -23
-37 -49 -82z"/>
<path d="M4985 4580 c-8 -12 20 -24 35 -15 6 3 8 11 5 16 -8 12 -32 12 -40 -1z"/>
<path d="M5820 4548 c0 -22 70 -72 83 -59 7 7 5 12 -9 17 -27 10 -54 35 -48
45 3 5 -2 9 -10 9 -9 0 -16 -6 -16 -12z"/>
<path d="M4773 4519 c-49 -22 -63 -43 -63 -93 0 -47 33 -83 93 -101 56 -17 54
-19 66 76 5 35 9 55 10 44 1 -12 4 -16 9 -9 4 6 34 20 66 31 33 10 61 24 63
30 5 15 -70 43 -117 43 -31 0 -40 -4 -40 -17 -1 -17 -1 -17 -14 0 -16 21 -21
21 -73 -4z"/>
<path d="M5092 4518 c5 -15 28 -18 29 -3 0 6 -7 12 -17 13 -10 3 -15 -1 -12
-10z"/>
<path d="M5143 4488 c2 -7 10 -13 17 -13 7 0 15 6 18 13 2 7 -5 12 -18 12 -13
0 -20 -5 -17 -12z"/>
<path d="M5745 4439 c-16 -11 -38 -18 -47 -15 -10 2 -21 0 -24 -5 -10 -17 26
-21 71 -9 33 9 45 18 45 31 0 23 -7 23 -45 -2z"/>
<path d="M4638 4153 c6 -2 18 -2 25 0 6 3 1 5 -13 5 -14 0 -19 -2 -12 -5z"/>
<path d="M4695 4122 c0 -23 -5 -28 -35 -32 l-35 -6 31 -5 c23 -4 35 0 43 13
13 21 14 45 3 52 -4 2 -8 -8 -7 -22z"/>
<path d="M4845 4109 c-4 -6 -5 -12 -2 -15 2 -3 7 2 10 11 7 17 1 20 -8 4z"/>
<path d="M5008 4075 c-2 -25 0 -45 4 -45 5 0 8 20 8 45 0 25 -2 45 -4 45 -2 0
-6 -20 -8 -45z"/>
<path d="M5053 4075 c0 -27 2 -38 4 -22 2 15 2 37 0 50 -2 12 -4 0 -4 -28z"/>
<path d="M5150 4072 l5 -47 3 39 c2 21 0 42 -5 47 -4 4 -6 -13 -3 -39z"/>
<path d="M5193 4075 c0 -27 2 -38 4 -22 2 15 2 37 0 50 -2 12 -4 0 -4 -28z"/>
<path d="M5593 4075 c0 -27 2 -38 4 -22 2 15 2 37 0 50 -2 12 -4 0 -4 -28z"/>
<path d="M4741 4084 c0 -11 3 -14 6 -6 3 7 2 16 -1 19 -3 4 -6 -2 -5 -13z"/>
<path d="M5329 4083 c-13 -16 -12 -17 4 -4 16 13 21 21 13 21 -2 0 -10 -8 -17
-17z"/>
<path d="M5453 4065 c0 -22 2 -30 4 -17 2 12 2 30 0 40 -3 9 -5 -1 -4 -23z"/>
<path d="M5803 4065 c0 -22 2 -30 4 -17 2 12 2 30 0 40 -3 9 -5 -1 -4 -23z"/>
<path d="M5698 4067 c-3 -19 -2 -25 4 -19 6 6 8 18 6 28 -3 14 -5 12 -10 -9z"/>
<path d="M5395 4070 c-3 -6 1 -7 9 -4 18 7 21 14 7 14 -6 0 -13 -4 -16 -10z"/>
<path d="M4740 4051 c0 -6 4 -13 10 -16 6 -3 7 1 4 9 -7 18 -14 21 -14 7z"/>
<path d="M5300 4045 c-7 -9 -8 -15 -2 -15 5 0 12 7 16 15 3 8 4 15 2 15 -2 0
-9 -7 -16 -15z"/>
<path d="M5127 3770 l-46 -80 40 0 39 0 0 -384 0 -385 -77 45 -78 44 -3 -40
-3 -40 -333 0 c-374 0 -456 -5 -456 -28 0 -13 48 -14 395 -10 l395 6 0 -39 c0
-22 3 -39 6 -39 3 0 37 19 75 41 38 23 80 42 92 43 l22 1 3 392 2 392 39 3 39
3 -44 75 c-24 41 -48 76 -53 78 -5 1 -29 -33 -54 -78z"/>
<path d="M2831 3761 c-23 -23 -19 -50 14 -81 22 -21 24 -21 33 -3 10 18 15 47
13 70 0 7 -10 17 -21 23 -15 8 -24 6 -39 -9z m43 -16 c3 -9 -1 -18 -10 -22
-19 -7 -39 11 -30 26 10 16 33 13 40 -4z"/>
<path d="M3292 3664 c-15 -11 -22 -26 -22 -50 0 -19 5 -34 11 -34 15 0 53 21
61 34 25 38 -13 76 -50 50z m46 -21 c5 -17 -26 -29 -40 -15 -6 6 -7 15 -3 22
9 14 37 9 43 -7z"/>
<path d="M2793 3606 c-28 -14 -66 -35 -83 -47 l-30 -23 -45 44 c-41 40 -46 43
-61 28 -13 -12 -13 -19 -4 -35 11 -17 6 -28 -33 -85 -104 -152 -130 -318 -75
-482 59 -179 227 -318 421 -348 73 -11 77 -13 77 -37 0 -50 -12 -72 -47 -86
-44 -19 -43 -19 -43 4 0 26 -34 66 -48 57 -9 -5 -8 -16 3 -43 21 -50 19 -56
-10 -28 -22 23 -55 34 -55 19 0 -3 16 -20 35 -38 22 -21 35 -43 35 -58 0 -74
149 -114 247 -67 26 13 45 29 48 42 8 38 8 62 1 78 -4 9 0 33 8 53 9 22 11 38
5 42 -15 9 -37 -14 -44 -47 -5 -23 -11 -29 -23 -24 -10 4 -25 9 -34 12 -19 6
-38 52 -38 93 0 25 4 28 44 33 67 9 151 44 224 94 57 38 70 43 86 33 15 -9 22
-9 34 4 15 15 12 20 -28 61 -41 42 -45 44 -62 28 -14 -12 -15 -19 -7 -30 17
-20 -13 -48 -96 -88 -196 -95 -414 -56 -563 99 -147 152 -180 367 -86 555 39
78 69 110 86 93 8 -8 7 -17 -6 -36 -24 -37 -20 -62 14 -93 17 -14 30 -36 30
-48 0 -11 5 -26 10 -31 7 -7 4 -16 -10 -29 -22 -20 -26 -67 -10 -110 7 -19 6
-33 -4 -54 -30 -57 -33 -188 -4 -179 6 2 16 19 22 38 9 27 18 36 44 41 19 4
40 16 48 28 8 12 21 21 29 21 13 0 75 64 75 79 0 4 -9 16 -20 26 -11 10 -22
27 -26 39 -18 61 -39 88 -80 108 -38 17 -44 25 -44 50 0 18 -8 36 -17 44 -14
9 -15 16 -7 24 21 21 49 7 52 -27 2 -17 12 -39 24 -49 20 -19 20 -19 14 12 -8
38 13 65 67 83 30 10 41 10 53 0 11 -9 18 -9 26 -1 7 7 24 12 40 12 25 0 27 2
22 30 -4 18 -2 30 4 30 5 0 16 15 23 33 7 17 14 35 17 40 2 4 -18 7 -45 7 -26
0 -57 7 -67 15 -27 21 -53 19 -113 -9z m134 -67 c-30 -16 -42 -18 -53 -8 -25
21 -15 29 39 29 l52 -1 -38 -20z"/>
<path d="M3040 3572 c0 -4 6 -14 12 -20 10 -10 10 -17 0 -32 -21 -35 -16 -53
15 -46 14 4 38 2 54 -4 22 -10 32 -9 53 5 14 10 26 22 26 29 0 6 -31 26 -68
44 -68 32 -92 39 -92 24z"/>
<path d="M3288 3392 c-25 -2 -43 -11 -53 -25 -15 -21 -17 -21 -29 -4 -7 9 -18
17 -24 17 -17 0 -25 -20 -13 -34 9 -11 5 -16 -20 -25 -40 -14 -33 -37 10 -33
38 4 73 -21 64 -46 -4 -10 -2 -13 5 -8 14 8 61 -23 62 -41 0 -16 -1 -16 -40 0
-17 8 -37 25 -44 38 -23 46 -106 51 -160 8 -21 -16 -26 -29 -26 -62 0 -38 3
-44 38 -62 46 -25 54 -66 23 -126 -25 -48 -28 -121 -5 -143 21 -21 21 -21 65
19 22 19 46 35 54 35 8 0 21 15 29 34 10 25 22 36 46 41 19 4 35 16 42 31 6
13 20 26 32 29 57 16 64 26 77 96 18 101 0 198 -42 223 -16 9 -29 21 -29 25 0
13 -20 17 -62 13z"/>
<path d="M2302 3238 c-7 -7 -12 -19 -12 -28 0 -19 33 -53 42 -44 8 7 3 -64 -7
-99 -6 -22 -20 -34 -63 -53 -60 -26 -78 -25 -43 3 16 14 23 32 26 73 5 79 0
84 -64 60 -30 -10 -55 -21 -57 -22 -12 -13 -6 -80 9 -96 24 -26 21 -36 -14
-49 -31 -12 -31 -13 -23 -60 12 -67 9 -282 -5 -317 l-12 -29 -22 44 c-17 34
-28 45 -49 47 -35 4 -36 -13 -3 -58 14 -19 25 -36 25 -38 0 -2 -15 -1 -34 2
l-35 7 1 -40 c0 -30 5 -40 19 -44 11 -3 19 -14 19 -25 0 -15 8 -22 26 -24 18
-2 33 -15 48 -42 12 -22 28 -41 34 -42 7 -1 8 0 2 3 -15 7 -12 30 5 37 11 4
13 11 6 28 -6 17 0 50 25 123 18 55 34 108 34 118 0 10 4 16 8 13 9 -5 25
-161 24 -226 -1 -19 6 -43 15 -52 15 -17 18 -17 34 -2 16 14 16 19 4 38 -11
16 -12 37 -5 96 5 41 9 115 10 164 0 83 1 88 20 83 10 -3 27 1 37 9 17 13 17
13 -4 14 -13 0 -23 5 -23 10 0 6 -7 10 -15 10 -8 0 -15 8 -15 18 0 9 -3 33 -6
53 -5 32 -2 39 41 81 43 43 48 52 58 117 6 39 14 71 19 71 15 0 8 27 -13 54
-22 28 -48 33 -67 14z m43 -28 c0 -8 -8 -16 -17 -18 -13 -2 -18 3 -18 18 0 15
5 20 18 18 9 -2 17 -10 17 -18z"/>
<path d="M3516 3215 c-29 -30 -39 -55 -22 -61 26 -10 79 1 90 19 24 38 -35 75
-68 42z m54 -19 c0 -20 -19 -31 -32 -18 -6 6 -7 15 -4 21 10 16 36 13 36 -3z"/>
<path d="M3650 3130 c-31 -31 -26 -53 10 -48 17 3 30 0 30 -5 0 -5 7 -7 15 -3
8 3 21 -4 29 -15 10 -15 15 -17 19 -7 4 10 7 10 15 -1 8 -11 11 -7 14 20 l3
34 17 -37 c12 -27 23 -38 38 -38 12 0 20 3 18 8 -2 4 -12 24 -21 45 -14 29
-23 37 -45 37 -15 0 -36 7 -46 15 -28 21 -72 19 -96 -5z"/>
<path d="M3602 2988 c-18 -18 -15 -36 8 -48 18 -10 20 -21 20 -135 0 -109 2
-124 18 -129 30 -8 116 -6 132 4 13 8 12 10 -3 10 -15 0 -16 3 -7 20 8 15 8
20 -1 20 -7 0 -5 9 5 26 14 20 15 31 6 58 -12 37 -5 66 15 66 23 0 27 18 10
50 -21 41 -61 57 -86 34 -18 -16 -55 -12 -45 4 3 5 -6 14 -20 21 -31 14 -37
14 -52 -1z"/>
<path d="M3210 2870 c-6 -11 -8 -20 -5 -20 14 0 45 21 45 30 0 18 -29 10 -40
-10z"/>
<path d="M3874 2692 c-34 -23 -50 -113 -29 -172 19 -54 19 -57 -5 -63 -25 -6
-26 -35 -2 -53 26 -20 29 -18 36 25 5 31 11 40 32 45 19 5 24 11 19 26 -4 13
0 22 14 30 16 8 19 17 14 43 -8 42 -8 42 -39 28 -35 -15 -39 -9 -20 28 27 52
16 88 -20 63z"/>
<path d="M4881 2513 c1 -38 4 -56 6 -41 3 20 11 28 31 31 l27 4 -27 2 c-24 1
-28 5 -28 30 0 25 5 30 28 34 25 4 25 4 -5 6 l-33 1 1 -67z"/>
<path d="M5603 2515 c0 -38 2 -53 4 -32 2 20 2 52 0 70 -2 17 -4 1 -4 -38z"/>
<path d="M5753 2515 c0 -38 2 -53 4 -32 2 20 2 52 0 70 -2 17 -4 1 -4 -38z"/>
<path d="M5101 2518 c0 -31 2 -59 7 -61 4 -3 6 16 4 41 -5 73 -10 82 -11 20z"/>
<path d="M3150 2532 c-35 -29 -16 -47 21 -20 16 12 29 25 29 30 0 14 -27 9
-50 -10z"/>
<path d="M5061 2500 c0 -15 -4 -30 -8 -36 -5 -5 -2 -4 5 2 8 6 12 22 9 35 -4
24 -4 24 -6 -1z"/>
<path d="M5323 2485 c0 -22 2 -30 4 -17 2 12 2 30 0 40 -3 9 -5 -1 -4 -23z"/>
<path d="M5151 2494 c0 -11 3 -14 6 -6 3 7 2 16 -1 19 -3 4 -6 -2 -5 -13z"/>
<path d="M5351 2494 c0 -11 3 -14 6 -6 3 7 2 16 -1 19 -3 4 -6 -2 -5 -13z"/>
<path d="M5681 2494 c0 -11 3 -14 6 -6 3 7 2 16 -1 19 -3 4 -6 -2 -5 -13z"/>
<path d="M3627 2446 c-12 -18 -12 -23 3 -39 16 -16 18 -16 33 1 23 25 21 49
-3 55 -12 3 -24 -2 -33 -17z"/>
<path d="M5546 2462 c-3 -5 1 -9 9 -9 8 0 15 4 15 9 0 4 -4 8 -9 8 -6 0 -12
-4 -15 -8z"/>
<path d="M5888 2295 c-1 -36 0 -65 5 -65 4 0 7 29 7 65 0 36 -2 65 -4 65 -2 0
-6 -29 -8 -65z"/>
<path d="M5043 2285 c0 -33 2 -45 4 -27 2 18 2 45 0 60 -2 15 -4 0 -4 -33z"/>
<path d="M4932 2271 c1 -41 2 -42 5 -11 3 19 9 40 14 46 5 7 3 11 -6 11 -11 0
-15 -12 -13 -46z"/>
<path d="M5202 2271 c1 -41 2 -42 5 -11 3 19 9 40 14 46 5 7 3 11 -6 11 -11 0
-15 -12 -13 -46z"/>
<path d="M5330 2272 l5 -47 3 39 c2 21 0 42 -5 47 -4 4 -6 -13 -3 -39z"/>
<path d="M5625 2309 c-4 -6 -5 -12 -2 -15 2 -3 7 2 10 11 7 17 1 20 -8 4z"/>
<path d="M5832 2308 c-7 -7 -11 -23 -11 -37 l2 -26 4 25 c3 14 10 31 15 38 13
15 6 16 -10 0z"/>
<path d="M5091 2274 c0 -11 3 -14 6 -6 3 7 2 16 -1 19 -3 4 -6 -2 -5 -13z"/>
<path d="M5171 2274 c0 -11 3 -14 6 -6 3 7 2 16 -1 19 -3 4 -6 -2 -5 -13z"/>
<path d="M5432 2250 c0 -14 2 -19 5 -12 2 6 2 18 0 25 -3 6 -5 1 -5 -13z"/>
<path d="M5722 2250 c0 -14 2 -19 5 -12 2 6 2 18 0 25 -3 6 -5 1 -5 -13z"/>
<path d="M1978 1983 c7 -3 16 -2 19 1 4 3 -2 6 -13 5 -11 0 -14 -3 -6 -6z"/>
<path d="M2700 1985 c0 -5 5 -17 10 -25 5 -8 10 -10 10 -5 0 6 -5 17 -10 25
-5 8 -10 11 -10 5z"/>
<path d="M2807 1983 c-2 -5 -1 -35 3 -68 l7 -60 2 68 c1 62 -2 78 -12 60z"/>
<path d="M2963 1925 c0 -38 2 -53 4 -32 2 20 2 52 0 70 -2 17 -4 1 -4 -38z"/>
<path d="M2016 1967 c3 -10 9 -15 12 -12 3 3 0 11 -7 18 -10 9 -11 8 -5 -6z"/>
<path d="M3734 1921 c1 -48 5 -65 16 -68 11 -3 11 -2 3 4 -6 5 -14 35 -16 68
l-4 60 1 -64z"/>
<path d="M3007 1955 c-4 -8 -2 -17 3 -20 6 -4 10 3 10 14 0 25 -6 27 -13 6z"/>
<path d="M2115 1904 c0 -24 3 -44 8 -44 4 0 7 18 7 39 0 22 -3 42 -7 44 -5 3
-8 -15 -8 -39z"/>
<path d="M2275 1904 c0 -24 3 -44 8 -44 4 0 7 18 7 39 0 22 -3 42 -7 44 -5 3
-8 -15 -8 -39z"/>
<path d="M2324 1939 c-3 -6 -2 -15 3 -20 5 -5 9 -1 9 11 0 23 -2 24 -12 9z"/>
<path d="M2483 1905 c0 -27 2 -38 4 -22 2 15 2 37 0 50 -2 12 -4 0 -4 -28z"/>
<path d="M2545 1939 c-4 -6 -5 -12 -2 -15 2 -3 7 2 10 11 7 17 1 20 -8 4z"/>
<path d="M2597 1940 c6 -8 13 -26 16 -40 l4 -25 2 26 c0 15 -7 33 -16 40 -16
12 -17 12 -6 -1z"/>
<path d="M2918 1905 c-2 -25 0 -45 4 -45 5 0 8 20 8 45 0 25 -2 45 -4 45 -2 0
-6 -20 -8 -45z"/>
<path d="M3100 1938 c0 -4 4 -8 9 -8 6 0 12 4 15 8 3 5 -1 9 -9 9 -8 0 -15 -4
-15 -9z"/>
<path d="M3213 1905 c0 -27 2 -38 4 -22 2 15 2 37 0 50 -2 12 -4 0 -4 -28z"/>
<path d="M3275 1939 c-4 -6 -5 -12 -2 -15 2 -3 7 2 10 11 7 17 1 20 -8 4z"/>
<path d="M3327 1940 c6 -8 13 -26 16 -40 l4 -25 2 26 c0 15 -7 33 -16 40 -16
12 -17 12 -6 -1z"/>
<path d="M3436 1937 c3 -10 9 -15 12 -12 3 3 0 11 -7 18 -10 9 -11 8 -5 -6z"/>
<path d="M3485 1939 c-4 -6 -5 -12 -2 -15 2 -3 7 2 10 11 7 17 1 20 -8 4z"/>
<path d="M3537 1940 c6 -8 13 -26 16 -40 l4 -25 2 26 c0 15 -7 33 -16 40 -16
12 -17 12 -6 -1z"/>
<path d="M2377 1879 c4 -13 8 -18 11 -10 2 7 -1 18 -6 23 -8 8 -9 4 -5 -13z"/>
<path d="M3167 1881 c-4 -17 -3 -21 5 -13 5 5 8 16 6 23 -3 8 -7 3 -11 -10z"/>
<path d="M2016 1873 c-6 -14 -5 -15 5 -6 7 7 10 15 7 18 -3 3 -9 -2 -12 -12z"/>
<path d="M3436 1873 c-6 -14 -5 -15 5 -6 7 7 10 15 7 18 -3 3 -9 -2 -12 -12z"/>
<path d="M3780 1881 c0 -6 4 -13 10 -16 6 -3 7 1 4 9 -7 18 -14 21 -14 7z"/>
<path d="M3846 1873 c-6 -14 -5 -15 5 -6 7 7 10 15 7 18 -3 3 -9 -2 -12 -12z"/>
<path d="M2170 1871 c0 -10 19 -25 25 -20 1 2 -3 10 -11 17 -8 7 -14 8 -14 3z"/>
<path d="M3017 1859 c7 -7 15 -10 18 -7 3 3 -2 9 -12 12 -14 6 -15 5 -6 -5z"/>
<path d="M2856 1642 c-25 -43 -46 -82 -46 -85 0 -4 18 -7 40 -7 l40 0 0 -380
c0 -209 -3 -380 -6 -380 -4 0 -39 18 -79 40 -40 22 -75 40 -79 40 -3 0 -6 -18
-6 -40 l0 -40 -390 0 c-365 0 -390 -1 -390 -17 0 -17 24 -18 390 -15 l390 3 0
-41 c0 -22 2 -40 4 -40 2 0 39 20 80 45 42 25 85 45 96 45 20 0 20 9 20 390
l0 390 40 0 c22 0 40 2 40 5 0 8 -91 165 -95 165 -2 0 -24 -35 -49 -78z"/>
<path d="M1203 1663 c9 -2 25 -2 35 0 9 3 1 5 -18 5 -19 0 -27 -2 -17 -5z"/>
<path d="M1366 1568 c-8 -13 -17 -48 -21 -78 -4 -30 -13 -65 -21 -77 -11 -17
-14 -69 -14 -233 0 -133 4 -210 10 -210 6 0 10 -11 10 -25 0 -24 3 -25 60 -25
52 0 60 3 60 18 0 25 7 31 31 25 10 -3 19 -14 19 -24 0 -16 8 -19 45 -19 38 0
45 3 45 20 0 11 7 20 15 20 8 0 15 5 15 10 0 6 -32 10 -75 10 l-75 0 0 205 c0
158 -3 211 -14 228 -7 12 -17 47 -20 77 -7 55 -28 100 -46 100 -5 0 -16 -10
-24 -22z"/>
<path d="M970 1261 l0 -291 -26 0 c-14 0 -23 -4 -19 -10 3 -5 0 -10 -7 -10 -7
0 -24 -3 -37 -7 -20 -5 -22 -3 -17 15 5 14 -1 36 -17 64 -23 40 -25 56 -30
217 -3 95 -9 176 -15 180 -5 3 -12 27 -16 54 -7 45 -8 47 -41 47 -32 0 -34 -2
-41 -45 -3 -25 -10 -48 -15 -51 -5 -3 -9 -25 -9 -50 0 -24 -4 -44 -10 -44 -5
0 -11 -71 -13 -167 -2 -93 -8 -183 -12 -201 -7 -30 -6 -32 25 -38 26 -6 31
-10 26 -28 -3 -12 -15 -59 -28 -106 l-21 -85 51 -83 c29 -46 49 -89 46 -94 -4
-7 -2 -8 4 -4 7 4 12 3 12 -3 0 -5 -8 -15 -17 -20 -15 -9 -12 -10 15 -11 19 0
32 5 33 13 0 6 2 64 3 127 2 86 8 129 23 170 11 30 18 61 16 68 -3 6 2 12 11
12 9 0 21 9 28 20 12 19 25 20 228 22 118 1 180 4 136 5 -72 4 -78 5 -73 23 4
16 0 20 -19 20 l-24 0 0 291 c0 224 -3 288 -12 283 -7 -4 -35 -8 -63 -8 -28 0
-56 4 -63 8 -9 5 -12 -59 -12 -283z m-177 -72 c6 -9 7 -36 3 -62 -14 -90 -79
-68 -89 30 -5 43 -3 52 11 55 26 6 64 -6 75 -23z"/>
<path d="M1500 1315 c0 -11 12 -15 50 -15 38 0 50 4 50 15 0 11 -12 15 -50 15
-38 0 -50 -4 -50 -15z"/>
<path d="M1530 1245 c0 -8 -4 -15 -9 -15 -6 0 -10 -53 -10 -120 l0 -120 34 0
35 0 0 113 c0 61 -3 122 -6 135 -7 25 -44 31 -44 7z m7 -137 c-3 -8 -6 -5 -6
6 -1 11 2 17 5 13 3 -3 4 -12 1 -19z m33 7 c0 -8 -4 -15 -10 -15 -5 0 -10 7
-10 15 0 8 5 15 10 15 6 0 10 -7 10 -15z"/>
<path d="M1783 1238 c-15 -19 -16 -120 -3 -128 9 -5 8 -15 -3 -36 -42 -83 -38
-343 7 -433 38 -73 48 -129 27 -141 -12 -7 -8 -9 19 -10 28 0 37 5 47 26 7 16
9 34 3 48 -12 33 -24 199 -16 240 6 30 11 35 39 38 l32 3 3 76 c2 67 0 82 -22
115 -13 22 -37 51 -52 66 -20 19 -25 31 -19 45 15 33 17 74 4 89 -14 17 -53
18 -66 2z"/>
<path d="M1935 1230 c-9 -15 3 -30 25 -30 18 0 34 23 23 34 -10 10 -41 7 -48
-4z"/>
<path d="M507 1123 c-14 -13 -6 -33 12 -33 25 0 38 20 20 31 -17 11 -24 11
-32 2z"/>
<path d="M315 1093 c-16 -3 -36 -9 -42 -15 -18 -15 -16 -49 4 -63 14 -10 14
-17 4 -46 -22 -61 -24 -160 -6 -223 14 -48 15 -71 7 -135 -15 -118 -15 -121
32 -121 36 0 38 1 21 13 -11 9 -14 16 -7 21 6 3 18 40 28 81 10 41 21 75 26
75 10 0 10 -9 -1 -87 -13 -87 -7 -103 37 -103 34 0 35 1 16 15 -10 8 -14 15
-8 15 7 0 17 35 24 84 12 80 12 86 -13 160 -26 76 -26 76 -9 146 14 58 21 70
37 70 22 0 49 35 40 50 -3 5 -26 23 -50 40 -43 30 -66 33 -140 23z"/>
<path d="M1022 595 c4 -33 38 -44 58 -20 16 19 4 33 -12 17 -16 -16 -28 -15
-28 2 0 8 -5 18 -11 21 -7 5 -9 -3 -7 -20z"/>
<path d="M1000 536 c0 -2 7 -6 15 -10 8 -3 15 -1 15 4 0 6 -7 10 -15 10 -8 0
-15 -2 -15 -4z"/>
<path d="M1092 173 c2 -50 7 -78 16 -81 9 -3 12 17 12 77 0 66 -3 81 -15 81
-13 0 -15 -13 -13 -77z"/>
<path d="M1150 235 c0 -9 5 -15 11 -13 6 2 11 8 11 13 0 5 -5 11 -11 13 -6 2
-11 -4 -11 -13z"/>
<path d="M1270 224 c0 -20 -4 -24 -19 -19 -26 8 -51 -20 -51 -55 0 -38 22 -58
62 -56 l33 2 3 77 c2 64 0 77 -13 77 -9 0 -15 -9 -15 -26z m0 -74 c0 -23 -4
-30 -20 -30 -16 0 -20 7 -20 30 0 23 4 30 20 30 16 0 20 -7 20 -30z"/>
<path d="M1500 224 c0 -20 -4 -24 -19 -19 -26 8 -51 -20 -51 -55 0 -38 22 -58
62 -56 l33 2 3 77 c2 64 0 77 -13 77 -9 0 -15 -9 -15 -26z m0 -74 c0 -23 -4
-30 -20 -30 -16 0 -20 7 -20 30 0 23 4 30 20 30 16 0 20 -7 20 -30z"/>
<path d="M732 168 c2 -46 7 -73 16 -76 8 -2 12 7 12 27 0 41 24 41 45 1 15
-29 35 -40 35 -19 0 6 -5 20 -11 31 -8 14 -8 23 0 31 15 15 14 50 -1 65 -7 7
-32 12 -55 12 l-44 0 3 -72z m73 27 c0 -30 -39 -27 -43 3 -3 20 0 23 20 20 15
-2 23 -10 23 -23z"/>
<path d="M880 190 c-11 -11 -20 -29 -20 -40 0 -20 32 -60 49 -60 20 0 41 13
41 25 0 8 -9 11 -24 8 -13 -3 -27 0 -30 6 -5 7 5 11 28 11 29 0 36 4 36 19 0
18 -34 51 -52 51 -5 0 -17 -9 -28 -20z m50 -20 c0 -5 -9 -10 -21 -10 -11 0
-17 5 -14 10 3 6 13 10 21 10 8 0 14 -4 14 -10z"/>
<path d="M994 196 c-24 -18 -10 -35 15 -19 18 12 31 8 31 -9 0 -4 -11 -8 -25
-8 -27 0 -48 -29 -35 -49 4 -8 26 -15 49 -16 l41 -2 0 41 c0 22 -4 46 -8 52
-13 20 -47 25 -68 10z m46 -60 c0 -18 -17 -29 -30 -21 -8 5 -7 11 1 21 15 18
29 18 29 0z"/>
<path d="M1334 196 c-24 -18 -10 -35 15 -19 18 11 31 8 31 -7 0 -4 -13 -10
-30 -13 -24 -5 -30 -12 -30 -32 0 -14 3 -25 8 -26 4 -1 24 -2 45 -3 l37 -3 0
43 c0 64 -34 90 -76 60z m46 -59 c0 -19 -10 -27 -26 -20 -11 4 -12 9 -3 19 15
18 29 18 29 1z"/>
<path d="M1150 144 c0 -73 24 -70 28 4 2 42 0 52 -12 52 -13 0 -16 -12 -16
-56z"/>
</g>
</svg>
