<?xml version="1.0" encoding="utf-8"?>
<!-- Generator: Adobe Illustrator 24.1.2, SVG Export Plug-In . SVG Version: 6.00 Build 0)  -->
<svg version="1.1" id="Capa_1" xmlns="http://www.w3.org/2000/svg" xmlns:xlink="http://www.w3.org/1999/xlink" x="0px" y="0px"
	 viewBox="0 0 50 50" style="enable-background:new 0 0 50 50;" xml:space="preserve">
<path d="M44.4,17.2v1.6c0,0.9-0.7,1.6-1.6,1.6H31.4c-0.9,0-1.6-0.7-1.6-1.6v-1.6c0-0.9,0.7-1.6,1.6-1.6h11.4
	C43.7,15.6,44.4,16.3,44.4,17.2z M31.5,38.5c0.1,0.3,0.1,0.6,0,0.8c-0.1,0.2-0.3,0.3-0.6,0.3h-5.3c-0.5,0-0.8-0.1-1-0.3
	s-0.3-0.6-0.5-1l-1.4-5.1h-8.7l-1.4,5.3c-0.1,0.5-0.3,0.8-0.6,1c-0.2,0.2-0.6,0.3-0.9,0.3H6.3c-0.3,0-0.5-0.1-0.7-0.2
	c-0.1-0.1-0.1-0.4,0-0.9l8.3-26.8c0.1-0.4,0.3-0.7,0.5-0.9s0.6-0.3,1.2-0.3h5.4c0.6,0,1,0.1,1.2,0.4c0.2,0.2,0.4,0.6,0.5,1
	L31.5,38.5z M21.5,28.2l-2.9-10.8h-0.2l-2.9,10.8H21.5z"/>
</svg>
