<?xml version="1.0" encoding="utf-8"?>
<!-- Generator: Adobe Illustrator 24.1.2, SVG Export Plug-In . SVG Version: 6.00 Build 0)  -->
<svg version="1.1" id="Capa_1" xmlns="http://www.w3.org/2000/svg" xmlns:xlink="http://www.w3.org/1999/xlink" x="0px" y="0px"
	 viewBox="0 0 50 50" style="enable-background:new 0 0 50 50;" xml:space="preserve">
<g>
	<path d="M5,19.7v10.6C5,31.8,6.2,33,7.7,33h6.2l0-16H7.7C6.2,17,5,18.2,5,19.7z"/>
	<path d="M28.2,6.5c-0.5-0.2-1-0.2-1.4,0.2L16.4,15l0.2,19.2l10.2,9.1c0.2,0.2,0.5,0.3,0.8,0.3c0.2,0,0.4,0,0.6-0.1
		c0.5-0.2,0.8-0.7,0.8-1.2V7.7C29,7.2,28.7,6.7,28.2,6.5z"/>
	<path d="M35.7,15.6c-0.5-0.5-1.4-0.5-1.9,0c-0.5,0.5-0.5,1.4,0,1.9c2,2,3.1,4.7,3.1,7.5s-1.1,5.5-3.1,7.5c-0.5,0.5-0.5,1.4,0,1.9
		c0.3,0.3,0.6,0.4,0.9,0.4c0.3,0,0.7-0.1,0.9-0.4c2.5-2.5,3.9-5.8,3.9-9.4C39.6,21.4,38.3,18.1,35.7,15.6z"/>
	<path d="M39.5,11.8c-0.5-0.5-1.4-0.5-1.9,0c-0.5,0.5-0.5,1.4,0,1.9c3,3,4.7,7,4.7,11.3s-1.7,8.3-4.7,11.3c-0.5,0.5-0.5,1.4,0,1.9
		c0.3,0.3,0.6,0.4,0.9,0.4c0.3,0,0.7-0.1,0.9-0.4C43,34.7,45,30,45,25S43,15.3,39.5,11.8z"/>
</g>
</svg>
