<?xml version="1.0" encoding="utf-8"?>
<!-- Generator: Adobe Illustrator 25.2.3, SVG Export Plug-In . SVG Version: 6.00 Build 0)  -->
<svg version="1.1" id="Capa_1" xmlns="http://www.w3.org/2000/svg" xmlns:xlink="http://www.w3.org/1999/xlink" x="0px" y="0px"
	 viewBox="0 0 777 281" style="enable-background:new 0 0 777 281;" xml:space="preserve">
<style type="text/css">
	.st0{fill:#D5EEF9;}
	.st1{fill:#D8D8DB;}
	.st2{fill:none;stroke:#000000;stroke-miterlimit:10;}
	.st3{fill:none;stroke:#000000;stroke-miterlimit:10;stroke-dasharray:11.0513,11.0513;}
	.st4{fill:none;stroke:#000000;stroke-miterlimit:10;stroke-dasharray:11.9388,11.9388;}
	.st5{fill:none;stroke:#000000;stroke-width:1.9676;stroke-miterlimit:10;}
	.st6{clip-path:url(#SVGID_2_);fill:#D8D8DB;}
	.st7{clip-path:url(#SVGID_2_);fill:none;stroke:#000000;stroke-width:0.9614;stroke-miterlimit:10;}
	.st8{clip-path:url(#SVGID_2_);}
	.st9{fill:none;stroke:#000000;stroke-width:0.9614;stroke-miterlimit:10;}
	.st10{fill:none;stroke:#000000;stroke-width:0.9614;stroke-miterlimit:10;stroke-dasharray:10.6805,10.6805;}
	.st11{fill:none;stroke:#000000;stroke-width:0.9614;stroke-miterlimit:10;stroke-dasharray:10.8725,10.8725;}
	.st12{fill:none;stroke:#000000;stroke-width:0.9614;stroke-miterlimit:10;stroke-dasharray:10.625,10.625;}
	.st13{fill:none;stroke:#000000;stroke-width:0.9614;stroke-miterlimit:10;stroke-dasharray:11.6645,11.6645;}
	.st14{fill:none;stroke:#000000;stroke-width:0.9614;stroke-miterlimit:10;stroke-dasharray:10.4134,10.4134;}
	.st15{fill:#D0E4EC;}
	.st16{fill:#2BABE3;}
	.st17{fill:#1E0070;stroke:#1E0070;stroke-width:3.8073;stroke-miterlimit:10;}
	.st18{fill:#1277A2;}
	.st19{fill:#605FA7;}
	.st20{fill:#253778;}
	.st21{fill:#3F57E0;}
	.st22{fill:none;stroke:#253778;stroke-width:3.0923;stroke-miterlimit:10;}
	.st23{opacity:0.25;}
</style>
<g>
	<g>
		<g>
			<path class="st16" d="M316.7,60.9c5.7,0,10.6,2,14.7,6.1c4.1,4.1,6.2,8.9,6.2,14.6s-2.1,10.5-6.2,14.6c-4.1,4.1-9,6.1-14.7,6.1
				s-10.6-2-14.7-6.1c-4.1-4.1-6.2-8.9-6.2-14.6S297.9,71,302,67C306.1,62.9,311,60.9,316.7,60.9z M316.7,63.3
				c-5,0-9.3,1.8-12.9,5.4c-3.6,3.6-5.4,7.9-5.4,12.9c0,5,1.8,9.3,5.4,12.9c3.6,3.6,7.9,5.4,12.9,5.4c5,0,9.3-1.8,12.9-5.4
				s5.4-7.9,5.4-12.9c0-5-1.8-9.3-5.4-12.9S321.7,63.3,316.7,63.3z"/>
			<path class="st16" d="M357.9,101.7h-10.3V61.4h8.1c1.9,0,3.4,0.2,4.7,0.5c1.3,0.3,2.5,0.9,3.6,1.9c2.2,2,3.4,4.7,3.4,8.3
				c0,3.7-1.6,6.5-4.7,8.2c2.5,0.5,4.5,1.7,6,3.5c1.5,1.9,2.3,4.1,2.3,6.6c0,3.4-1.2,6.2-3.7,8.3
				C365.1,100.7,361.9,101.7,357.9,101.7z M350.2,63.8v15.9h4.4c0.1,0,0.4,0,0.9,0c0.5,0,0.8,0,0.9,0c0.1,0,0.4,0,0.8,0
				c0.4,0,0.7,0,0.9-0.1c0.2,0,0.4-0.1,0.7-0.1c0.3-0.1,0.6-0.1,0.8-0.2c0.2-0.1,0.4-0.2,0.7-0.3c0.3-0.1,0.6-0.2,0.8-0.4
				c0.2-0.1,0.5-0.3,0.7-0.5c2-1.4,3-3.6,3-6.5c0-3-1.1-5.2-3.3-6.6c-1.4-0.9-3.7-1.3-6.9-1.3H350.2z M350.2,82.1v17.2h6.1
				c1.4,0,2.4,0,3,0c0.6,0,1.4-0.2,2.5-0.4c1.1-0.2,2-0.6,2.8-1.1c2.6-1.8,4-4.2,4-7.2c0-1.5-0.4-3-1.1-4.3
				c-0.7-1.3-1.8-2.3-3.1-2.9c-1.7-0.9-4.5-1.3-8.5-1.3H350.2z"/>
			<path class="st16" d="M402.1,66.5l-1.8,1.5c-2-3.2-4.7-4.8-8.2-4.8c-2.1,0-3.9,0.7-5.4,2.2c-1.5,1.5-2.2,3.3-2.2,5.5
				c0,1,0.2,1.9,0.6,2.7c0.4,0.8,1,1.5,1.9,2.2c0.9,0.7,1.6,1.1,2.1,1.4c0.5,0.3,1.4,0.7,2.6,1.3l7.7,4c3.1,1.9,4.6,4.6,4.6,8
				c0,3.3-1.3,6.1-3.8,8.3c-2.5,2.3-5.5,3.4-8.8,3.4c-2.7,0-5.2-0.8-7.3-2.4c-2.1-1.6-3.6-3.7-4.6-6.3l2.2-1
				c1.9,4.8,5.2,7.3,9.7,7.3c2.7,0,5-0.9,7-2.8c2-1.9,3-4.1,3-6.7c0-0.8-0.2-1.6-0.5-2.3c-0.3-0.7-0.7-1.3-1.1-1.8
				c-0.4-0.4-1-1-1.8-1.5c-0.9-0.6-1.5-1-1.8-1.1c-0.4-0.2-1.1-0.5-2.1-1c-0.4-0.2-0.6-0.3-0.7-0.4l-7.3-3.9
				c-2.8-1.7-4.2-4.1-4.2-7.2c0-3,1-5.4,2.9-7.4c1.9-1.9,4.4-2.9,7.4-2.9c2,0,3.9,0.5,5.7,1.5C399.7,63.4,401.1,64.8,402.1,66.5z"/>
			<path class="st16" d="M433.7,63.8H417v14.7h16.3v2.4H417v18.4h16.7v2.4h-19.2V61.4h19.2V63.8z"/>
			<path class="st16" d="M452,82.6l13.2,19.1h-2.9l-13.2-19.1h-1.3v19.1h-2.6V61.4h5c1.4,0,2.5,0,3.3,0.1c0.8,0.1,1.8,0.2,2.9,0.6
				c1.1,0.3,2.1,0.8,3,1.4c2.7,1.9,4.1,4.8,4.1,8.7c0,3.4-1.1,6.1-3.2,7.9C458.2,81.8,455.5,82.7,452,82.6z M447.8,80.2h3.3
				c3.3,0,5.6-0.6,7.1-1.9c1.9-1.5,2.8-3.7,2.8-6.4c0-1.6-0.4-3-1.1-4.4s-1.8-2.3-3.2-2.9c-1.3-0.6-3.7-0.9-7.2-0.9h-1.7V80.2z"/>
			<path class="st16" d="M473.6,61.4l12,34.4h0.1l11.9-34.4h2.6L485.5,103L471,61.4H473.6z"/>
			<path class="st16" d="M524.8,88.5h-17.7l-5.4,13.3h-2.6L516,60.1l16.8,41.7h-2.6L524.8,88.5z M523.9,86L516,66.6L508.1,86H523.9z
				"/>
			<path class="st16" d="M545.9,63.8v37.9h-2.6V63.8h-10.4v-2.4h23.4v2.4H545.9z"/>
			<path class="st16" d="M583.2,60.9c5.7,0,10.6,2,14.7,6.1c4.1,4.1,6.2,8.9,6.2,14.6s-2.1,10.5-6.2,14.6c-4.1,4.1-9,6.1-14.7,6.1
				s-10.6-2-14.7-6.1c-4.1-4.1-6.2-8.9-6.2-14.6s2.1-10.5,6.2-14.6C572.6,62.9,577.5,60.9,583.2,60.9z M583.2,63.3
				c-5,0-9.3,1.8-12.9,5.4c-3.6,3.6-5.4,7.9-5.4,12.9c0,5,1.8,9.3,5.4,12.9c3.6,3.6,7.9,5.4,12.9,5.4c5,0,9.3-1.8,12.9-5.4
				s5.4-7.9,5.4-12.9c0-5-1.8-9.3-5.4-12.9S588.2,63.3,583.2,63.3z"/>
			<path class="st16" d="M620.9,82.6l13.2,19.1h-2.9L618,82.6h-1.3v19.1h-2.6V61.4h5c1.4,0,2.5,0,3.3,0.1c0.8,0.1,1.8,0.2,2.9,0.6
				c1.1,0.3,2.1,0.8,3,1.4c2.7,1.9,4.1,4.8,4.1,8.7c0,3.4-1.1,6.1-3.2,7.9C627.1,81.8,624.3,82.7,620.9,82.6z M616.7,80.2h3.3
				c3.3,0,5.6-0.6,7.1-1.9c1.9-1.5,2.8-3.7,2.8-6.4c0-1.6-0.4-3-1.1-4.4s-1.8-2.3-3.2-2.9c-1.3-0.6-3.7-0.9-7.2-0.9h-1.7V80.2z"/>
			<path class="st16" d="M646.5,61.4v40.3H644V61.4H646.5z"/>
			<path class="st16" d="M677.4,60.9c5.7,0,10.6,2,14.7,6.1c4.1,4.1,6.2,8.9,6.2,14.6s-2.1,10.5-6.2,14.6c-4.1,4.1-9,6.1-14.7,6.1
				s-10.6-2-14.7-6.1c-4.1-4.1-6.2-8.9-6.2-14.6s2.1-10.5,6.2-14.6C666.8,62.9,671.7,60.9,677.4,60.9z M677.4,63.3
				c-5,0-9.3,1.8-12.9,5.4c-3.6,3.6-5.4,7.9-5.4,12.9c0,5,1.8,9.3,5.4,12.9c3.6,3.6,7.9,5.4,12.9,5.4c5,0,9.3-1.8,12.9-5.4
				s5.4-7.9,5.4-12.9c0-5-1.8-9.3-5.4-12.9S682.4,63.3,677.4,63.3z"/>
		</g>
	</g>
	<g>
		<g>
			<path class="st20" d="M297.5,162.8v-41h8.8v41H297.5z"/>
			<path class="st20" d="M315.6,162.8v-41h9.1l18.1,23.9c0.5,0.7,1.1,1.6,1.7,2.8s1.3,2.7,1.9,4.3c-0.2-1.2-0.4-2.4-0.4-3.6
				c-0.1-1.2-0.1-2.7-0.1-4.5v-22.9h8.4v41h-8.6L327,138.5c-0.5-0.7-1.1-1.6-1.7-2.8c-0.6-1.2-1.3-2.7-2-4.4
				c0.2,1.2,0.4,2.4,0.4,3.6c0.1,1.2,0.1,2.7,0.1,4.5v23.4H315.6z"/>
			<path class="st20" d="M359.9,162.8l6.2-41h9.2l7.9,24.1c0.2,0.5,0.3,1.2,0.5,2.2c0.2,1,0.4,2.1,0.5,3.3c0.1-1.3,0.3-2.4,0.5-3.4
				c0.2-1,0.4-1.7,0.5-2.2l8-24.1h9l6.3,41h-8.3l-3-24.7c-0.2-1.8-0.4-3.2-0.4-4.1s-0.1-1.8-0.1-2.6c0-0.4,0-0.8,0-1
				c0-0.2,0-0.4,0-0.6c-0.3,1.6-0.5,3-0.8,4.2c-0.3,1.2-0.5,2-0.7,2.6l-8.7,26.2h-4.9l-8.5-26.2c-0.1-0.2-0.2-0.9-0.5-2
				c-0.3-1.1-0.6-2.7-1-4.8v1.2c0,1.9-0.2,4.2-0.5,7l0,0.1l-3,24.7H359.9z"/>
			<path class="st20" d="M456.3,142.3c0,2.9-0.5,5.7-1.6,8.3c-1.1,2.6-2.7,4.9-4.7,6.9c-2.1,2-4.5,3.6-7.2,4.7
				c-2.7,1.1-5.4,1.6-8.3,1.6c-2.5,0-5-0.4-7.3-1.3c-2.4-0.8-4.6-2.1-6.6-3.7c-2.6-2.1-4.5-4.5-5.9-7.4c-1.4-2.9-2.1-5.9-2.1-9.2
				c0-2.9,0.5-5.7,1.6-8.3c1.1-2.6,2.7-4.9,4.8-6.9c2.1-2,4.4-3.5,7.2-4.6c2.7-1.1,5.5-1.7,8.4-1.7c2.9,0,5.6,0.6,8.3,1.7
				c2.7,1.1,5.1,2.7,7.2,4.6c2.1,2,3.6,4.3,4.7,6.9C455.8,136.7,456.3,139.4,456.3,142.3z M434.5,156c3.7,0,6.8-1.3,9.2-3.9
				s3.6-5.9,3.6-9.8c0-3.9-1.2-7.1-3.7-9.8s-5.5-4-9.2-4c-3.7,0-6.8,1.3-9.2,4c-2.4,2.6-3.7,5.9-3.7,9.8c0,4,1.2,7.2,3.6,9.8
				C427.6,154.7,430.7,156,434.5,156z"/>
			<path class="st20" d="M463.7,162.8v-41h7.7c4,0,6.9,0.2,8.7,0.5c1.8,0.3,3.4,0.8,4.8,1.5c1.6,0.9,2.8,2.1,3.7,3.6
				s1.3,3.2,1.3,5.1c0,2.4-0.7,4.4-2.2,5.8c-1.4,1.5-3.6,2.4-6.4,2.9c3.3,0.5,5.8,1.6,7.5,3.2c1.7,1.7,2.5,3.9,2.5,6.6
				c0,2-0.5,3.9-1.5,5.5c-1,1.7-2.3,3-4,3.9c-1.5,0.8-3.3,1.4-5.3,1.8c-2,0.4-5.4,0.5-10.1,0.5h-0.9H463.7z M472.5,138.1h2
				c2.6,0,4.5-0.4,5.6-1.1c1.1-0.7,1.7-2,1.7-3.8c0-1.7-0.5-2.9-1.6-3.7c-1.1-0.7-2.9-1.1-5.5-1.1h-2.1V138.1z M472.5,155.9h3.4
				c2.2,0,3.9-0.5,5-1.4c1.1-1,1.7-2.4,1.7-4.2c0-1.7-0.6-3.1-1.7-4c-1.1-0.9-2.8-1.4-4.9-1.4h-3.6V155.9z"/>
			<path class="st20" d="M498.1,162.8v-41h8.8v41H498.1z"/>
			<path class="st20" d="M516.2,162.8v-41h8.8v33.5h14v7.4H516.2z"/>
			<path class="st20" d="M544.7,162.8v-41h8.8v41H544.7z"/>
			<path class="st20" d="M557.9,162.8l15.6-41h10l15.8,41h-10l-3.3-8.7h-15.9l-2.9,8.7H557.9z M584,147.2l-4.6-13.2
				c-0.1-0.4-0.3-1.1-0.5-2c-0.2-1-0.4-2.1-0.6-3.5c-0.2,1.3-0.5,2.5-0.7,3.6c-0.2,1.1-0.4,1.8-0.5,2.1l-4.4,13.1H584z"/>
			<path class="st20" d="M633.3,162.8h-10.1l-10.8-19.1v19.1h-8.8v-41h12.5c5,0,8.7,1,11.2,2.9c2.5,1.9,3.7,4.8,3.7,8.7
				c0,2.8-0.8,5.2-2.5,7.2c-1.7,2-3.9,3.2-6.6,3.5L633.3,162.8z M612.4,139.2h1.3c3.5,0,5.9-0.4,7-1.2s1.7-2.1,1.7-4
				c0-2-0.6-3.4-1.8-4.3c-1.2-0.8-3.5-1.3-6.9-1.3h-1.3V139.2z"/>
			<path class="st20" d="M638.6,162.8v-41h8.8v41H638.6z"/>
			<path class="st20" d="M698.6,142.3c0,2.9-0.5,5.7-1.6,8.3c-1.1,2.6-2.7,4.9-4.7,6.9c-2.1,2-4.5,3.6-7.2,4.7
				c-2.7,1.1-5.4,1.6-8.3,1.6c-2.5,0-5-0.4-7.3-1.3c-2.4-0.8-4.6-2.1-6.6-3.7c-2.6-2.1-4.5-4.5-5.9-7.4c-1.4-2.9-2.1-5.9-2.1-9.2
				c0-2.9,0.5-5.7,1.6-8.3c1.1-2.6,2.7-4.9,4.8-6.9c2.1-2,4.4-3.5,7.2-4.6c2.7-1.1,5.5-1.7,8.4-1.7c2.9,0,5.6,0.6,8.3,1.7
				c2.7,1.1,5.1,2.7,7.2,4.6c2.1,2,3.6,4.3,4.7,6.9C698.1,136.7,698.6,139.4,698.6,142.3z M676.8,156c3.7,0,6.8-1.3,9.2-3.9
				s3.6-5.9,3.6-9.8c0-3.9-1.2-7.1-3.7-9.8s-5.5-4-9.2-4c-3.7,0-6.8,1.3-9.2,4c-2.4,2.6-3.7,5.9-3.7,9.8c0,4,1.2,7.2,3.6,9.8
				C669.9,154.7,673,156,676.8,156z"/>
			<path class="st20" d="M297.3,220.7v-41h9.1l18.1,23.9c0.5,0.7,1.1,1.6,1.7,2.8s1.3,2.7,1.9,4.3c-0.2-1.2-0.4-2.4-0.4-3.6
				c-0.1-1.2-0.1-2.7-0.1-4.5v-22.9h8.4v41h-8.6l-18.6-24.3c-0.5-0.7-1.1-1.6-1.7-2.8c-0.6-1.2-1.3-2.7-2-4.4
				c0.2,1.2,0.4,2.4,0.4,3.6c0.1,1.2,0.1,2.7,0.1,4.5v23.4H297.3z"/>
			<path class="st20" d="M340.3,220.7l15.6-41h10l15.8,41h-10l-3.3-8.7h-15.9l-2.9,8.7H340.3z M366.4,205.1l-4.6-13.2
				c-0.1-0.4-0.3-1.1-0.5-2c-0.2-1-0.4-2.1-0.6-3.5c-0.2,1.3-0.5,2.5-0.7,3.6c-0.2,1.1-0.4,1.8-0.5,2.1l-4.4,13.1H366.4z"/>
			<path class="st20" d="M418,190.3c-1.8-1.6-3.6-2.7-5.5-3.5s-3.9-1.1-6-1.1c-4.4,0-7.8,1.3-10.4,3.9c-2.6,2.6-3.9,6.1-3.9,10.5
				c0,4.3,1.2,7.7,3.6,10.3c2.4,2.5,5.7,3.8,9.9,3.8c2.4,0,4.6-0.4,6.6-1.2c2-0.8,3.9-2,5.7-3.6l-0.1,9c-1.9,1.1-3.8,1.9-5.9,2.5
				s-4.2,0.8-6.5,0.8c-6.5,0-11.9-2-16.1-6.1c-4.2-4.1-6.3-9.2-6.3-15.5c0-6.2,2.1-11.4,6.3-15.4c4.2-4,9.6-6.1,16.2-6.1
				c2.2,0,4.4,0.2,6.4,0.7c2.1,0.5,4.1,1.2,6.1,2.2L418,190.3z"/>
			<path class="st20" d="M426.3,220.7v-41h8.8v41H426.3z"/>
			<path class="st20" d="M486.4,200.3c0,2.9-0.5,5.7-1.6,8.3c-1.1,2.6-2.7,4.9-4.7,6.9c-2.1,2-4.5,3.6-7.2,4.7
				c-2.7,1.1-5.4,1.6-8.3,1.6c-2.5,0-5-0.4-7.3-1.3c-2.4-0.8-4.6-2.1-6.6-3.7c-2.6-2.1-4.5-4.5-5.9-7.4c-1.4-2.9-2.1-5.9-2.1-9.2
				c0-2.9,0.5-5.7,1.6-8.3c1.1-2.6,2.7-4.9,4.8-6.9c2.1-2,4.4-3.5,7.2-4.6s5.5-1.7,8.4-1.7c2.9,0,5.6,0.6,8.3,1.7s5.1,2.7,7.2,4.6
				c2.1,2,3.6,4.3,4.7,6.9C485.9,194.6,486.4,197.3,486.4,200.3z M464.6,213.9c3.7,0,6.8-1.3,9.2-3.9s3.6-5.9,3.6-9.8
				c0-3.9-1.2-7.1-3.7-9.8s-5.5-4-9.2-4c-3.7,0-6.8,1.3-9.2,4c-2.4,2.6-3.7,5.9-3.7,9.8c0,4,1.2,7.2,3.6,9.8
				C457.7,212.6,460.8,213.9,464.6,213.9z"/>
			<path class="st20" d="M493.8,220.7v-41h9.1l18.1,23.9c0.5,0.7,1.1,1.6,1.7,2.8s1.3,2.7,1.9,4.3c-0.2-1.2-0.4-2.4-0.4-3.6
				c-0.1-1.2-0.1-2.7-0.1-4.5v-22.9h8.4v41h-8.6l-18.6-24.3c-0.5-0.7-1.1-1.6-1.7-2.8c-0.6-1.2-1.3-2.7-2-4.4
				c0.2,1.2,0.4,2.4,0.4,3.6c0.1,1.2,0.1,2.7,0.1,4.5v23.4H493.8z"/>
			<path class="st20" d="M536.7,220.7l15.6-41h10l15.8,41h-10l-3.3-8.7H549l-2.9,8.7H536.7z M562.8,205.1l-4.6-13.2
				c-0.1-0.4-0.3-1.1-0.5-2c-0.2-1-0.4-2.1-0.6-3.5c-0.2,1.3-0.5,2.5-0.7,3.6c-0.2,1.1-0.4,1.8-0.5,2.1l-4.4,13.1H562.8z"/>
			<path class="st20" d="M582.5,220.7v-41h8.8v33.5h14v7.4H582.5z"/>
		</g>
	</g>
</g>
<g>
	<path class="st20" d="M154.2,235.6c-52.4,0-95.1-42.6-95.1-95.1c0-52.4,42.6-95.1,95.1-95.1c0,0,0,0,0,0V33.3c0,0,0,0,0,0
		C95.1,33.3,47,81.4,47,140.5s48.1,107.2,107.2,107.2c59.1,0,107.2-48.1,107.2-107.2h-12.2C249.3,192.9,206.6,235.6,154.2,235.6z"/>
	<circle class="st20" cx="192" cy="46.3" r="6.1"/>
	<circle class="st20" cx="226" cy="69" r="6.1"/>
	<circle class="st20" cx="247.8" cy="102.9" r="6.1"/>
	<path class="st20" d="M154.2,198.4c-31.9,0-57.9-26-57.9-57.9c0-31.9,26-57.9,57.9-57.9c0,0,0,0,0,0v-8.1c0,0,0,0,0,0
		c-36.4,0-66,29.6-66,66c0,36.4,29.6,66,66,66c36.4,0,66-29.6,66-66h-8.1C212.1,172.4,186.1,198.4,154.2,198.4z"/>
	<g>
		<path class="st20" d="M201,174.7V79.2l-20.5-19.7v132.5C188.4,188.1,195.6,181.8,201,174.7z"/>
		<g>
			<path class="st16" d="M155.5,81v117.3c0,0,10.2,0.3,21.6-4.6V62.2L155.5,81z"/>
		</g>
		<g>
			<path class="st16" d="M102.8,113.5v53.3c4.7,9.3,11.9,17.1,20.6,22.6V95.6L102.8,113.5z"/>
		</g>
		<path class="st20" d="M126.6,95.5v95.7c6.3,3.4,13.2,5.8,20.6,6.7v-84.5L126.6,95.5z"/>
	</g>
</g>
</svg>
