<?xml version="1.0" encoding="UTF-8" standalone="no"?>
<svg
   xmlns:dc="http://purl.org/dc/elements/1.1/"
   xmlns:cc="http://creativecommons.org/ns#"
   xmlns:rdf="http://www.w3.org/1999/02/22-rdf-syntax-ns#"
   xmlns:svg="http://www.w3.org/2000/svg"
   xmlns="http://www.w3.org/2000/svg"
   xmlns:sodipodi="http://sodipodi.sourceforge.net/DTD/sodipodi-0.dtd"
   xmlns:inkscape="http://www.inkscape.org/namespaces/inkscape"
   width="40mm"
   height="17mm"
   viewBox="0 0 40 17"
   version="1.1"
   id="svg8"
   inkscape:version="1.0.2-2 (e86c870879, 2021-01-15)"
   sodipodi:docname="logo-dane.svg"
   inkscape:export-filename="C:\Users\Ivan Carrillo\Downloads\bitmap.png"
   inkscape:export-xdpi="90"
   inkscape:export-ydpi="90">
  <defs
     id="defs2" />
  <sodipodi:namedview
     id="base"
     pagecolor="#ffffff"
     bordercolor="#666666"
     borderopacity="1.0"
     inkscape:pageopacity="0.0"
     inkscape:pageshadow="2"
     inkscape:zoom="1.979899"
     inkscape:cx="98.128535"
     inkscape:cy="134.95903"
     inkscape:document-units="mm"
     inkscape:current-layer="layer1"
     inkscape:document-rotation="0"
     showgrid="false"
     inkscape:window-width="2560"
     inkscape:window-height="1017"
     inkscape:window-x="-8"
     inkscape:window-y="-8"
     inkscape:window-maximized="1" />
  <metadata
     id="metadata5">
    <rdf:RDF>
      <cc:Work
         rdf:about="">
        <dc:format>image/svg+xml</dc:format>
        <dc:type
           rdf:resource="http://purl.org/dc/dcmitype/StillImage" />
        <dc:title></dc:title>
      </cc:Work>
    </rdf:RDF>
  </metadata>
  <g
     inkscape:label="Layer 1"
     inkscape:groupmode="layer"
     id="layer1">
    <g
       id="g912"
       transform="matrix(0.26458333,0,0,0.26458333,-0.94830762,-0.21943552)"
       style="fill:#4c4c4c;fill-opacity:1">
      <polygon
         fill="#a1144d"
         points="122.73,47.04 95.1,22.06 95.1,47.04 87.05,47.04 87.05,5.06 87.92,5.06 115.54,30.44 115.54,5.06 123.59,5.06 123.59,47.04 "
         id="polygon833"
         style="fill:#4c4c4c;fill-opacity:1" />
      <polygon
         fill="#a1144d"
         points="135.89,39.81 135.89,29.93 151.43,29.93 151.43,22.63 135.89,22.63 135.89,12.12 153.08,12.12 153.08,5 151.75,5 134.56,5 127.85,5 127.85,47.04 134.56,47.04 154.72,47.04 154.72,39.81 "
         id="polygon835"
         style="fill:#4c4c4c;fill-opacity:1" />
      <path
         fill="#a1144d"
         d="M 41.3,17.09 C 40.25,14.43 38.69,12.16 36.63,10.28 32.77,6.76 27.84,5 21.84,5 H 5.26 v 7.24 h 8.04 8.56 c 1.46,0 2.95,0.17 4.48,0.52 1.53,0.34 2.93,1.02 4.19,2.01 1.27,0.99 2.3,2.4 3.1,4.22 0.8,1.82 1.2,4.18 1.2,7.09 0,2.91 -0.4,5.26 -1.2,7.06 -0.81,1.8 -1.83,3.21 -3.08,4.22 -1.24,1.02 -2.63,1.69 -4.16,2.04 -1.53,0.34 -3.05,0.52 -4.54,0.52 H 13.3 V 39.9 23.78 H 5.26 v 0 16.12 0 7.14 h 16.58 c 2.98,0 5.72,-0.44 8.23,-1.32 2.51,-0.88 4.69,-2.18 6.57,-3.91 2.07,-1.87 3.62,-4.14 4.67,-6.8 1.05,-2.66 1.58,-5.66 1.58,-8.99 -0.01,-3.29 -0.53,-6.27 -1.59,-8.93"
         id="path837"
         style="fill:#4c4c4c;fill-opacity:1" />
      <path
         fill="#a1144d"
         d="M 40.67,47.01 62.15,5.03 h 0.8 L 84.43,47.02 H 75.7 L 69.39,34.4 55.43,34.33 49.4,47.01 Z m 18.42,-19.02 6.87,-0.02 -3.42,-7.26 z"
         id="path839"
         style="fill:#4c4c4c;fill-opacity:1" />
      <rect
         x="5"
         y="53.23"
         fill="#381820"
         width="1.05"
         height="8.4200001"
         id="rect841"
         style="fill:#4c4c4c;fill-opacity:1" />
      <polygon
         fill="#381820"
         points="8.74,61.65 7.7,61.65 7.7,52.83 14.02,59.45 14.02,53.23 15.07,53.23 15.07,62 8.74,55.37 "
         id="polygon843"
         style="fill:#4c4c4c;fill-opacity:1" />
      <polygon
         fill="#381820"
         points="17.78,54.19 17.78,56.56 20.7,56.56 20.7,57.52 17.78,57.52 17.78,61.65 16.73,61.65 16.73,53.23 20.8,53.23 20.8,54.19 "
         id="polygon845"
         style="fill:#4c4c4c;fill-opacity:1" />
      <path
         fill="#381820"
         d="m 30.44,57.44 c 0,2.5 -1.98,4.39 -4.41,4.39 -2.44,0 -4.41,-1.89 -4.41,-4.39 0,-2.41 2,-4.39 4.41,-4.39 2.41,0 4.41,1.98 4.41,4.39 m -1.05,0 c 0,-1.85 -1.39,-3.41 -3.36,-3.41 -1.98,0 -3.36,1.55 -3.36,3.41 0,1.92 1.54,3.41 3.36,3.41 1.82,0 3.36,-1.49 3.36,-3.41"
         id="path847"
         style="fill:#4c4c4c;fill-opacity:1" />
      <path
         fill="#381820"
         d="m 36.87,61.65 h -1.28 l -2.48,-3.56 h -0.44 v 3.56 h -1.05 v -8.42 h 1.27 c 0.75,0 1.55,0.01 2.22,0.39 0.71,0.41 1.11,1.21 1.11,2.01 0,1.21 -0.8,2.21 -2.02,2.36 z m -4.19,-4.43 h 0.33 c 1.07,0 2.24,-0.2 2.24,-1.54 0,-1.32 -1.25,-1.51 -2.29,-1.51 h -0.28 z"
         id="path849"
         style="fill:#4c4c4c;fill-opacity:1" />
      <polygon
         fill="#381820"
         points="44.72,52.87 46.44,61.65 45.35,61.65 44.37,56.09 44.35,56.09 41.82,61.83 39.3,56.09 39.27,56.09 38.29,61.65 37.21,61.65 38.93,52.87 41.82,59.51 "
         id="polygon851"
         style="fill:#4c4c4c;fill-opacity:1" />
      <path
         fill="#381820"
         d="m 48.74,59.54 -0.96,2.11 h -1.13 l 4.02,-8.78 4.02,8.78 H 53.56 L 52.6,59.54 Z m 1.94,-4.37 -1.5,3.41 h 2.99 z"
         id="path853"
         style="fill:#4c4c4c;fill-opacity:1" />
      <path
         fill="#381820"
         d="m 61.71,54.84 c -0.6,-0.54 -1.43,-0.83 -2.22,-0.83 -1.89,0 -3.33,1.57 -3.33,3.44 0,1.84 1.43,3.42 3.31,3.42 0.83,0 1.62,-0.31 2.25,-0.87 v 1.24 c -0.65,0.38 -1.47,0.59 -2.21,0.59 -2.4,0 -4.39,-1.91 -4.39,-4.35 0,-2.49 2,-4.44 4.48,-4.44 0.74,0 1.49,0.18 2.12,0.57 v 1.23 z"
         id="path855"
         style="fill:#4c4c4c;fill-opacity:1" />
      <rect
         x="63.099998"
         y="53.23"
         fill="#381820"
         width="1.05"
         height="8.4200001"
         id="rect857"
         style="fill:#4c4c4c;fill-opacity:1" />
      <path
         fill="#381820"
         d="m 74.13,57.44 c 0,2.5 -1.98,4.39 -4.41,4.39 -2.43,0 -4.41,-1.89 -4.41,-4.39 0,-2.41 2,-4.39 4.41,-4.39 2.41,0 4.41,1.98 4.41,4.39 m -1.05,0 c 0,-1.85 -1.39,-3.41 -3.36,-3.41 -1.98,0 -3.36,1.55 -3.36,3.41 0,1.92 1.54,3.41 3.36,3.41 1.82,0 3.36,-1.49 3.36,-3.41 m -1.87,-6.41 -1.83,1.66 -0.49,-0.3 1.4,-1.86 z"
         id="path859"
         style="fill:#4c4c4c;fill-opacity:1" />
      <polygon
         fill="#381820"
         points="76.27,61.65 75.21,61.65 75.21,52.83 81.54,59.45 81.54,53.23 82.59,53.23 82.59,62 76.27,55.37 "
         id="polygon861"
         style="fill:#4c4c4c;fill-opacity:1" />
      <path
         fill="#381820"
         d="m 88.71,61.65 h -1.05 v -8.42 h 1.21 c 2.59,0 3.4,0.89 3.4,2.43 0,1.78 -1.35,2.46 -2.95,2.46 h -0.61 z m 0,-4.47 h 0.34 c 1.07,0 2.24,-0.2 2.24,-1.54 0,-1.32 -1.25,-1.47 -2.29,-1.47 h -0.28 v 3.01 z"
         id="path863"
         style="fill:#4c4c4c;fill-opacity:1" />
      <path
         fill="#381820"
         d="m 93.66,59.54 -0.96,2.11 h -1.13 l 4.02,-8.78 4.02,8.78 h -1.13 l -0.96,-2.11 z m 1.93,-4.37 -1.5,3.41 h 3 z"
         id="path865"
         style="fill:#4c4c4c;fill-opacity:1" />
      <path
         fill="#381820"
         d="m 105.73,61.65 h -1.27 l -2.48,-3.56 h -0.44 v 3.56 h -1.05 v -8.42 h 1.28 c 0.75,0 1.55,0.01 2.22,0.39 0.7,0.41 1.11,1.21 1.11,2.01 0,1.21 -0.81,2.21 -2.02,2.36 z m -4.19,-4.43 h 0.33 c 1.07,0 2.24,-0.2 2.24,-1.54 0,-1.32 -1.25,-1.51 -2.29,-1.51 h -0.28 z"
         id="path867"
         style="fill:#4c4c4c;fill-opacity:1" />
      <path
         fill="#381820"
         d="m 107.93,59.54 -0.96,2.11 h -1.13 l 4.02,-8.78 4.02,8.78 h -1.13 l -0.96,-2.11 z m 1.93,-4.37 -1.5,3.41 h 3 z"
         id="path869"
         style="fill:#4c4c4c;fill-opacity:1" />
      <polygon
         fill="#381820"
         points="122.42,54.19 120.42,54.19 120.42,61.65 119.38,61.65 119.38,54.19 117.37,54.19 117.37,53.23 122.42,53.23 "
         id="polygon871"
         style="fill:#4c4c4c;fill-opacity:1" />
      <path
         fill="#381820"
         d="m 131.66,57.44 c 0,2.5 -1.98,4.39 -4.41,4.39 -2.44,0 -4.41,-1.89 -4.41,-4.39 0,-2.41 2,-4.39 4.41,-4.39 2.41,0 4.41,1.98 4.41,4.39 m -1.06,0 c 0,-1.85 -1.38,-3.41 -3.36,-3.41 -1.98,0 -3.36,1.55 -3.36,3.41 0,1.92 1.54,3.41 3.36,3.41 1.82,0 3.36,-1.49 3.36,-3.41"
         id="path873"
         style="fill:#4c4c4c;fill-opacity:1" />
      <path
         fill="#381820"
         d="m 132.76,53.23 h 1.74 c 2.58,0 4.73,1.36 4.73,4.17 0,2.87 -2.1,4.25 -4.76,4.25 h -1.71 z m 1.05,7.46 h 0.37 c 2.15,0 4,-0.8 4,-3.25 0,-2.46 -1.85,-3.25 -4,-3.25 h -0.37 z"
         id="path875"
         style="fill:#4c4c4c;fill-opacity:1" />
      <path
         fill="#381820"
         d="m 148.68,57.44 c 0,2.5 -1.98,4.39 -4.41,4.39 -2.44,0 -4.41,-1.89 -4.41,-4.39 0,-2.41 2,-4.39 4.41,-4.39 2.41,0 4.41,1.98 4.41,4.39 m -1.05,0 c 0,-1.85 -1.39,-3.41 -3.36,-3.41 -1.98,0 -3.37,1.55 -3.37,3.41 0,1.92 1.54,3.41 3.37,3.41 1.82,0 3.36,-1.49 3.36,-3.41"
         id="path877"
         style="fill:#4c4c4c;fill-opacity:1" />
      <path
         fill="#381820"
         d="m 153.61,54.83 c -0.31,-0.52 -0.71,-0.79 -1.35,-0.79 -0.67,0 -1.41,0.46 -1.41,1.2 0,0.66 0.65,1.01 1.17,1.21 l 0.6,0.23 c 1.2,0.47 2.09,1.13 2.09,2.53 0,1.53 -1.18,2.63 -2.69,2.63 -1.36,0 -2.42,-1.01 -2.6,-2.36 l 1.06,-0.22 c -0.01,0.93 0.73,1.6 1.63,1.6 0.91,0 1.55,-0.76 1.55,-1.64 0,-0.9 -0.73,-1.29 -1.45,-1.6 l -0.58,-0.24 c -0.96,-0.41 -1.83,-0.96 -1.83,-2.13 0,-1.36 1.21,-2.18 2.48,-2.18 0.94,0 1.71,0.46 2.17,1.27 z"
         id="path879"
         style="fill:#4c4c4c;fill-opacity:1" />
    </g>
  </g>
</svg>
