<?xml version="1.0" encoding="utf-8"?>
<!-- Generator: Adobe Illustrator 25.2.3, SVG Export Plug-In . SVG Version: 6.00 Build 0)  -->
<svg version="1.1" id="Capa_1" xmlns="http://www.w3.org/2000/svg" xmlns:xlink="http://www.w3.org/1999/xlink" x="0px" y="0px"
	 viewBox="0 0 878 254" style="enable-background:new 0 0 878 254;" xml:space="preserve">
<style type="text/css">
	.st0{fill:#D5EEF9;}
	.st1{fill:#D8D8DB;}
	.st2{fill:none;stroke:#000000;stroke-miterlimit:10;}
	.st3{fill:none;stroke:#000000;stroke-miterlimit:10;stroke-dasharray:11.0513,11.0513;}
	.st4{fill:none;stroke:#000000;stroke-miterlimit:10;stroke-dasharray:11.9388,11.9388;}
	.st5{fill:none;stroke:#000000;stroke-width:1.9676;stroke-miterlimit:10;}
	.st6{clip-path:url(#SVGID_2_);fill:#D8D8DB;}
	.st7{clip-path:url(#SVGID_2_);fill:none;stroke:#000000;stroke-width:0.9614;stroke-miterlimit:10;}
	.st8{clip-path:url(#SVGID_2_);}
	.st9{fill:none;stroke:#000000;stroke-width:0.9614;stroke-miterlimit:10;}
	.st10{fill:none;stroke:#000000;stroke-width:0.9614;stroke-miterlimit:10;stroke-dasharray:10.6805,10.6805;}
	.st11{fill:none;stroke:#000000;stroke-width:0.9614;stroke-miterlimit:10;stroke-dasharray:10.8725,10.8725;}
	.st12{fill:none;stroke:#000000;stroke-width:0.9614;stroke-miterlimit:10;stroke-dasharray:10.625,10.625;}
	.st13{fill:none;stroke:#000000;stroke-width:0.9614;stroke-miterlimit:10;stroke-dasharray:11.6645,11.6645;}
	.st14{fill:none;stroke:#000000;stroke-width:0.9614;stroke-miterlimit:10;stroke-dasharray:10.4134,10.4134;}
	.st15{fill:#D0E4EC;}
	.st16{fill:#2BABE3;}
	.st17{fill:#1E0070;stroke:#1E0070;stroke-width:3.8073;stroke-miterlimit:10;}
	.st18{fill:#1277A2;}
	.st19{fill:#605FA7;}
	.st20{fill:#253778;}
	.st21{fill:#3F57E0;}
	.st22{fill:none;stroke:#253778;stroke-width:3.0923;stroke-miterlimit:10;}
	.st23{opacity:0.25;}
</style>
<g>
	<g>
		<g>
			<path class="st19" d="M316.4,70.4c7.8,0,14.6,2.8,20.3,8.4c5.7,5.6,8.6,12.4,8.6,20.2c0,7.8-2.9,14.6-8.6,20.2
				c-5.7,5.6-12.5,8.4-20.3,8.4c-7.8,0-14.6-2.8-20.3-8.4c-5.7-5.6-8.6-12.4-8.6-20.2c0-7.8,2.8-14.6,8.5-20.2
				C301.7,73.2,308.5,70.4,316.4,70.4z M316.4,73.8c-7,0-12.9,2.5-17.9,7.5c-5,5-7.5,10.9-7.5,17.8s2.5,12.8,7.5,17.8
				c5,5,10.9,7.5,17.9,7.5c6.9,0,12.9-2.5,17.9-7.5c5-5,7.5-10.9,7.5-17.8c0-6.9-2.5-12.8-7.5-17.8
				C329.3,76.2,323.3,73.8,316.4,73.8z"/>
			<path class="st19" d="M373.5,126.9h-14.3V71.2h11.2c2.6,0,4.7,0.2,6.5,0.6c1.8,0.4,3.5,1.3,5,2.6c3.1,2.7,4.7,6.6,4.7,11.5
				c0,5.2-2.1,9-6.4,11.4c3.5,0.7,6.2,2.3,8.4,4.9c2.1,2.6,3.2,5.6,3.2,9.2c0,4.7-1.7,8.6-5.2,11.5
				C383.3,125.6,379,126.9,373.5,126.9z M362.7,74.5v22h6.1c0.1,0,0.6,0,1.2,0c0.7,0,1.1,0,1.2,0c0.1,0,0.5,0,1.1,0
				c0.6,0,1,0,1.2-0.1c0.2,0,0.6-0.1,1-0.1c0.5-0.1,0.8-0.2,1.1-0.3c0.3-0.1,0.6-0.2,1-0.4c0.4-0.1,0.8-0.3,1.1-0.5
				c0.3-0.2,0.7-0.4,1-0.7c2.8-2,4.1-5,4.1-9c0-4.2-1.5-7.3-4.6-9.2c-1.9-1.2-5.1-1.8-9.5-1.8H362.7z M362.7,99.8v23.8h8.5
				c2,0,3.4,0,4.1,0c0.8,0,1.9-0.2,3.4-0.6c1.5-0.3,2.8-0.9,3.8-1.6c3.6-2.5,5.5-5.8,5.5-9.9c0-2.1-0.5-4.1-1.5-5.9
				c-1-1.8-2.4-3.2-4.3-4.1c-2.4-1.2-6.3-1.8-11.8-1.8H362.7z"/>
			<path class="st19" d="M434.5,78.3l-2.5,2.1c-2.8-4.4-6.5-6.6-11.3-6.6c-3,0-5.5,1-7.5,3.1c-2,2.1-3,4.6-3,7.5
				c0,1.4,0.3,2.6,0.8,3.7c0.5,1.1,1.4,2.1,2.7,3c1.2,0.9,2.2,1.6,3,2c0.7,0.4,1.9,1,3.6,1.8l10.7,5.5c4.2,2.7,6.4,6.4,6.4,11.1
				c0,4.5-1.8,8.4-5.3,11.5c-3.5,3.1-7.6,4.7-12.2,4.7c-3.8,0-7.2-1.1-10.1-3.3c-2.9-2.2-5-5.1-6.4-8.7l3.1-1.4
				c2.7,6.7,7.2,10.1,13.5,10.1c3.7,0,6.9-1.3,9.7-3.8c2.7-2.6,4.1-5.7,4.1-9.3c0-1.1-0.2-2.2-0.7-3.2c-0.5-1-1-1.8-1.5-2.4
				c-0.5-0.6-1.4-1.3-2.6-2.1c-1.2-0.8-2-1.3-2.6-1.6c-0.5-0.3-1.5-0.8-2.9-1.4c-0.5-0.2-0.8-0.4-1-0.5l-10.1-5.3
				c-3.8-2.4-5.8-5.7-5.8-10c0-4.1,1.3-7.5,4-10.2c2.7-2.6,6.1-4,10.3-4c2.8,0,5.4,0.7,7.9,2.1C431.3,73.9,433.2,75.9,434.5,78.3z"
				/>
			<path class="st19" d="M478.2,74.5h-23.1v20.3h22.5v3.3h-22.5v25.5h23.1v3.3h-26.6V71.2h26.6V74.5z"/>
			<path class="st19" d="M503.6,100.5l18.3,26.4h-4.1l-18.2-26.4h-1.8v26.4h-3.6V71.2h7c1.9,0,3.5,0,4.6,0.1c1.1,0.1,2.5,0.3,4,0.8
				c1.6,0.4,2.9,1.1,4.1,1.9c3.7,2.6,5.6,6.6,5.6,12c0,4.7-1.5,8.4-4.4,10.9C512.2,99.4,508.4,100.6,503.6,100.5z M497.8,97.2h4.5
				c4.5,0,7.8-0.9,9.8-2.6c2.6-2.1,3.9-5.1,3.9-8.8c0-2.2-0.5-4.2-1.5-6c-1-1.8-2.5-3.2-4.4-4c-1.8-0.8-5.1-1.3-10-1.3h-2.3V97.2z"
				/>
			<path class="st19" d="M533.5,71.2l16.6,47.6h0.1l16.5-47.6h3.6L550,128.8l-20-57.6H533.5z"/>
			<path class="st19" d="M604.4,108.6h-24.5l-7.5,18.3h-3.6l23.4-57.6l23.3,57.6h-3.6L604.4,108.6z M603,105.3l-10.9-26.9
				l-10.9,26.9H603z"/>
			<path class="st19" d="M633.5,74.5v52.5H630V74.5h-14.4v-3.3h32.4v3.3H633.5z"/>
			<path class="st19" d="M685.2,70.4c7.8,0,14.6,2.8,20.3,8.4c5.7,5.6,8.6,12.4,8.6,20.2c0,7.8-2.9,14.6-8.6,20.2
				c-5.7,5.6-12.5,8.4-20.3,8.4c-7.8,0-14.6-2.8-20.3-8.4c-5.7-5.6-8.6-12.4-8.6-20.2c0-7.8,2.8-14.6,8.5-20.2
				C670.5,73.2,677.3,70.4,685.2,70.4z M685.2,73.8c-7,0-12.9,2.5-17.9,7.5c-5,5-7.5,10.9-7.5,17.8s2.5,12.8,7.5,17.8
				c5,5,10.9,7.5,17.9,7.5c6.9,0,12.9-2.5,17.9-7.5c5-5,7.5-10.9,7.5-17.8c0-6.9-2.5-12.8-7.5-17.8C698,76.2,692.1,73.8,685.2,73.8z
				"/>
			<path class="st19" d="M737.2,100.5l18.3,26.4h-4.1l-18.2-26.4h-1.8v26.4h-3.6V71.2h7c1.9,0,3.5,0,4.6,0.1c1.1,0.1,2.5,0.3,4,0.8
				c1.6,0.4,2.9,1.1,4.1,1.9c3.7,2.6,5.6,6.6,5.6,12c0,4.7-1.5,8.4-4.4,10.9C745.9,99.4,742,100.6,737.2,100.5z M731.5,97.2h4.5
				c4.5,0,7.8-0.9,9.8-2.6c2.6-2.1,3.9-5.1,3.9-8.8c0-2.2-0.5-4.2-1.5-6c-1-1.8-2.5-3.2-4.4-4c-1.8-0.8-5.1-1.3-10-1.3h-2.3V97.2z"
				/>
			<path class="st19" d="M772.7,71.2v55.8h-3.6V71.2H772.7z"/>
			<path class="st19" d="M815.5,70.4c7.8,0,14.6,2.8,20.3,8.4c5.7,5.6,8.6,12.4,8.6,20.2c0,7.8-2.9,14.6-8.6,20.2
				c-5.7,5.6-12.5,8.4-20.3,8.4c-7.8,0-14.6-2.8-20.3-8.4c-5.7-5.6-8.6-12.4-8.6-20.2c0-7.8,2.8-14.6,8.5-20.2
				C800.8,73.2,807.6,70.4,815.5,70.4z M815.5,73.8c-7,0-12.9,2.5-17.9,7.5c-5,5-7.5,10.9-7.5,17.8s2.5,12.8,7.5,17.8
				c5,5,10.9,7.5,17.9,7.5c6.9,0,12.9-2.5,17.9-7.5c5-5,7.5-10.9,7.5-17.8c0-6.9-2.5-12.8-7.5-17.8
				C828.4,76.2,822.4,73.8,815.5,73.8z"/>
		</g>
	</g>
	<g>
		<g>
			<path class="st20" d="M288,183.9v-31h6.6v31H288z"/>
			<path class="st20" d="M301.7,183.9v-31h6.9l13.7,18.1c0.4,0.5,0.8,1.2,1.3,2.2c0.5,0.9,1,2,1.5,3.3c-0.2-0.9-0.3-1.8-0.3-2.7
				c-0.1-0.9-0.1-2-0.1-3.4v-17.4h6.3v31h-6.5l-14.1-18.4c-0.4-0.5-0.8-1.2-1.3-2.2s-1-2-1.5-3.3c0.2,0.9,0.3,1.8,0.3,2.7
				c0.1,0.9,0.1,2.1,0.1,3.4v17.7H301.7z"/>
			<path class="st20" d="M335.2,183.9l4.7-31h7l6,18.3c0.1,0.4,0.3,0.9,0.4,1.7c0.1,0.7,0.3,1.6,0.4,2.5c0.1-1,0.2-1.8,0.4-2.6
				c0.1-0.8,0.3-1.3,0.4-1.7l6.1-18.2h6.8l4.7,31h-6.3l-2.3-18.7c-0.2-1.4-0.3-2.4-0.3-3.1c-0.1-0.7-0.1-1.4-0.1-2
				c0-0.3,0-0.6,0-0.7c0-0.2,0-0.3,0-0.4c-0.2,1.2-0.4,2.3-0.6,3.1c-0.2,0.9-0.4,1.6-0.5,2l-6.6,19.8h-3.7l-6.5-19.8
				c-0.1-0.2-0.2-0.7-0.4-1.5c-0.2-0.8-0.5-2-0.8-3.6v0.9c0,1.4-0.1,3.2-0.4,5.3l0,0.1l-2.2,18.7H335.2z"/>
			<path class="st20" d="M408.3,168.4c0,2.2-0.4,4.3-1.2,6.3c-0.8,2-2,3.7-3.6,5.2c-1.6,1.5-3.4,2.7-5.4,3.5c-2,0.8-4.1,1.2-6.3,1.2
				c-1.9,0-3.7-0.3-5.6-1c-1.8-0.6-3.5-1.6-5-2.8c-2-1.6-3.4-3.4-4.5-5.6c-1-2.2-1.6-4.5-1.6-7c0-2.2,0.4-4.3,1.2-6.3
				c0.8-2,2-3.7,3.6-5.2c1.6-1.5,3.4-2.7,5.4-3.5c2.1-0.8,4.2-1.3,6.4-1.3c2.2,0,4.3,0.4,6.3,1.3s3.8,2,5.4,3.5
				c1.6,1.5,2.8,3.3,3.6,5.2C407.8,164.1,408.3,166.2,408.3,168.4z M391.7,178.8c2.8,0,5.1-1,7-3c1.8-2,2.7-4.4,2.7-7.4
				c0-2.9-0.9-5.4-2.8-7.4c-1.9-2-4.2-3-6.9-3c-2.8,0-5.1,1-7,3c-1.9,2-2.8,4.5-2.8,7.4c0,3,0.9,5.5,2.7,7.4
				C386.5,177.8,388.8,178.8,391.7,178.8z"/>
			<path class="st20" d="M413.9,183.9v-31h5.8c3,0,5.2,0.1,6.6,0.3c1.4,0.2,2.6,0.6,3.6,1.2c1.2,0.7,2.1,1.6,2.8,2.7
				c0.7,1.1,1,2.4,1,3.8c0,1.8-0.5,3.3-1.6,4.4c-1.1,1.1-2.7,1.8-4.9,2.2c2.5,0.4,4.4,1.2,5.7,2.4c1.3,1.3,1.9,2.9,1.9,5
				c0,1.5-0.4,2.9-1.1,4.2c-0.7,1.3-1.7,2.2-3,2.9c-1.1,0.6-2.5,1.1-4,1.3c-1.5,0.3-4.1,0.4-7.7,0.4h-0.7H413.9z M420.5,165.2h1.5
				c2,0,3.4-0.3,4.3-0.8c0.8-0.6,1.3-1.5,1.3-2.8c0-1.3-0.4-2.2-1.2-2.8c-0.8-0.6-2.2-0.8-4.2-0.8h-1.6V165.2z M420.5,178.7h2.6
				c1.7,0,2.9-0.4,3.8-1.1c0.9-0.7,1.3-1.8,1.3-3.2c0-1.3-0.4-2.3-1.3-3c-0.9-0.7-2.1-1-3.7-1h-2.7V178.7z"/>
			<path class="st20" d="M439.9,183.9v-31h6.6v31H439.9z"/>
			<path class="st20" d="M453.6,183.9v-31h6.6v25.4h10.6v5.6H453.6z"/>
			<path class="st20" d="M475.2,183.9v-31h6.6v31H475.2z"/>
			<path class="st20" d="M485.2,183.9l11.8-31h7.6l12,31H509l-2.5-6.6h-12l-2.2,6.6H485.2z M505,172l-3.5-10
				c-0.1-0.3-0.2-0.8-0.4-1.5c-0.2-0.7-0.3-1.6-0.5-2.7c-0.2,1-0.4,1.9-0.5,2.7c-0.2,0.8-0.3,1.3-0.4,1.6l-3.4,9.9H505z"/>
			<path class="st20" d="M542.3,183.9h-7.7l-8.2-14.5v14.5h-6.6v-31h9.5c3.8,0,6.6,0.7,8.5,2.2s2.8,3.7,2.8,6.6c0,2.1-0.6,4-1.9,5.5
				c-1.3,1.5-2.9,2.4-5,2.7L542.3,183.9z M526.5,166h1c2.7,0,4.5-0.3,5.3-0.9c0.9-0.6,1.3-1.6,1.3-3.1c0-1.5-0.5-2.6-1.4-3.3
				c-0.9-0.6-2.7-1-5.2-1h-1V166z"/>
			<path class="st20" d="M546.3,183.9v-31h6.6v31H546.3z"/>
			<path class="st20" d="M591.8,168.4c0,2.2-0.4,4.3-1.2,6.3c-0.8,2-2,3.7-3.6,5.2c-1.6,1.5-3.4,2.7-5.4,3.5c-2,0.8-4.1,1.2-6.3,1.2
				c-1.9,0-3.7-0.3-5.6-1c-1.8-0.6-3.5-1.6-5-2.8c-2-1.6-3.4-3.4-4.5-5.6s-1.6-4.5-1.6-7c0-2.2,0.4-4.3,1.2-6.3c0.8-2,2-3.7,3.6-5.2
				c1.6-1.5,3.4-2.7,5.4-3.5s4.2-1.3,6.4-1.3c2.2,0,4.3,0.4,6.3,1.3c2,0.8,3.8,2,5.4,3.5c1.6,1.5,2.8,3.3,3.6,5.2
				C591.4,164.1,591.8,166.2,591.8,168.4z M575.3,178.8c2.8,0,5.1-1,7-3c1.8-2,2.7-4.4,2.7-7.4c0-2.9-0.9-5.4-2.8-7.4
				c-1.9-2-4.2-3-6.9-3c-2.8,0-5.1,1-7,3c-1.9,2-2.8,4.5-2.8,7.4c0,3,0.9,5.5,2.7,7.4C570,177.8,572.4,178.8,575.3,178.8z"/>
			<path class="st20" d="M610.7,183.9v-31h6.9l13.7,18.1c0.4,0.5,0.8,1.2,1.3,2.2c0.5,0.9,1,2,1.5,3.3c-0.2-0.9-0.3-1.8-0.3-2.7
				c-0.1-0.9-0.1-2-0.1-3.4v-17.4h6.3v31h-6.5l-14.1-18.4c-0.4-0.5-0.8-1.2-1.3-2.2c-0.5-0.9-1-2-1.5-3.3c0.2,0.9,0.3,1.8,0.3,2.7
				c0.1,0.9,0.1,2.1,0.1,3.4v17.7H610.7z"/>
			<path class="st20" d="M643.3,183.9l11.8-31h7.6l12,31h-7.5l-2.5-6.6h-12l-2.2,6.6H643.3z M663,172l-3.5-10
				c-0.1-0.3-0.2-0.8-0.4-1.5c-0.2-0.7-0.3-1.6-0.5-2.7c-0.2,1-0.4,1.9-0.5,2.7c-0.2,0.8-0.3,1.3-0.4,1.6l-3.4,9.9H663z"/>
			<path class="st20" d="M702.1,160.9c-1.3-1.2-2.7-2.1-4.1-2.6c-1.4-0.6-2.9-0.8-4.5-0.8c-3.3,0-5.9,1-7.9,3s-2.9,4.6-2.9,8
				c0,3.3,0.9,5.9,2.7,7.8c1.8,1.9,4.3,2.9,7.5,2.9c1.8,0,3.5-0.3,5-0.9c1.5-0.6,3-1.5,4.3-2.7l0,6.8c-1.4,0.8-2.9,1.5-4.4,1.9
				c-1.5,0.4-3.2,0.6-4.9,0.6c-4.9,0-9-1.5-12.2-4.6c-3.2-3.1-4.8-7-4.8-11.7c0-4.7,1.6-8.6,4.8-11.7c3.2-3.1,7.3-4.6,12.3-4.6
				c1.7,0,3.3,0.2,4.9,0.5c1.6,0.4,3.1,0.9,4.6,1.6L702.1,160.9z"/>
			<path class="st20" d="M708.4,183.9v-31h6.6v31H708.4z"/>
			<path class="st20" d="M754,168.4c0,2.2-0.4,4.3-1.2,6.3c-0.8,2-2,3.7-3.6,5.2c-1.6,1.5-3.4,2.7-5.4,3.5c-2,0.8-4.1,1.2-6.3,1.2
				c-1.9,0-3.7-0.3-5.6-1c-1.8-0.6-3.5-1.6-5-2.8c-2-1.6-3.4-3.4-4.5-5.6s-1.6-4.5-1.6-7c0-2.2,0.4-4.3,1.2-6.3c0.8-2,2-3.7,3.6-5.2
				c1.6-1.5,3.4-2.7,5.4-3.5s4.2-1.3,6.4-1.3c2.2,0,4.3,0.4,6.3,1.3c2,0.8,3.8,2,5.4,3.5c1.6,1.5,2.8,3.3,3.6,5.2
				C753.5,164.1,754,166.2,754,168.4z M737.4,178.8c2.8,0,5.1-1,7-3c1.8-2,2.7-4.4,2.7-7.4c0-2.9-0.9-5.4-2.8-7.4
				c-1.9-2-4.2-3-6.9-3c-2.8,0-5.1,1-7,3c-1.9,2-2.8,4.5-2.8,7.4c0,3,0.9,5.5,2.7,7.4C732.2,177.8,734.5,178.8,737.4,178.8z"/>
			<path class="st20" d="M759.5,183.9v-31h6.9l13.7,18.1c0.4,0.5,0.8,1.2,1.3,2.2c0.5,0.9,1,2,1.5,3.3c-0.2-0.9-0.3-1.8-0.3-2.7
				c-0.1-0.9-0.1-2-0.1-3.4v-17.4h6.3v31h-6.5l-14.1-18.4c-0.4-0.5-0.8-1.2-1.3-2.2c-0.5-0.9-1-2-1.5-3.3c0.2,0.9,0.3,1.8,0.3,2.7
				c0.1,0.9,0.1,2.1,0.1,3.4v17.7H759.5z"/>
			<path class="st20" d="M792.1,183.9l11.8-31h7.6l12,31h-7.5l-2.5-6.6h-12l-2.2,6.6H792.1z M811.8,172l-3.5-10
				c-0.1-0.3-0.2-0.8-0.4-1.5c-0.2-0.7-0.3-1.6-0.5-2.7c-0.2,1-0.4,1.9-0.5,2.7c-0.2,0.8-0.3,1.3-0.4,1.6l-3.4,9.9H811.8z"/>
			<path class="st20" d="M826.7,183.9v-31h6.6v25.4H844v5.6H826.7z"/>
		</g>
	</g>
</g>
<g>
	<path class="st20" d="M142,231.3c-63,0-114.4-49.9-116.7-112.4c-0.1,1.4-0.1,2.9-0.1,4.3C25.2,187.7,77.5,240,142,240
		s116.7-52.3,116.7-116.7c0-1.5,0-2.9-0.1-4.3C256.3,181.4,205,231.3,142,231.3z"/>
	<g>
		<g class="st23">
			<path class="st19" d="M182.4,111.1l-125.8,73c1.4,1.8,2.9,3.6,4.5,5.3l130.8-75L182.4,111.1z"/>
			<path class="st19" d="M245.3,148.7l-128.9,73.7c3.1,0.7,6.2,1.3,9.4,1.8l116.4-66.8C243.3,154.6,244.3,151.7,245.3,148.7z"/>
			<path class="st19" d="M134.5,82.8l-98.7,57.1c0.5,2.2,1,4.3,1.6,6.4l99.9-58.7L134.5,82.8z"/>
			<path class="st19" d="M35.5,138.4L172.1,221c2.6-0.8,5.2-1.6,7.7-2.6L34.2,130.1C34.5,132.9,35,135.7,35.5,138.4z"/>
			<path class="st19" d="M70.5,76.5l-5.6,3.3l166.6,97.7c1.1-1.7,2.2-3.4,3.2-5.1L70.5,76.5z"/>
		</g>
		<g>
			<g>
				<g>
					<g>
						<g>
							<polygon class="st19" points="58.4,138 91.8,157.4 91.8,154.9 58.4,135.5 							"/>
						</g>
						<g>
							<polygon class="st19" points="58.4,90.6 91.8,110 91.8,107.6 58.4,88.1 							"/>
						</g>
						<g>
							<polygon class="st19" points="58.4,97.1 91.8,116.5 91.8,114 58.4,94.6 							"/>
						</g>
						<g>
							<polygon class="st19" points="58.4,104.2 91.8,123.7 91.8,121.2 58.4,101.8 							"/>
						</g>
						<g>
							<polygon class="st19" points="58.4,111.1 91.8,130.5 91.8,128 58.4,108.6 							"/>
						</g>
						<g>
							<polygon class="st19" points="58.4,117.5 91.8,136.9 91.8,134.5 58.4,115.1 							"/>
						</g>
						<g>
							<polygon class="st19" points="58.4,124.3 91.8,143.8 91.8,141.3 58.4,121.9 							"/>
						</g>
						<g>
							<polygon class="st19" points="58.4,131.5 91.8,150.9 91.8,148.4 58.4,129 							"/>
						</g>
						<g>
							<polygon class="st19" points="94,156.4 127.4,136.6 127.4,87.6 94,107.4 							"/>
						</g>
						<g>
							<polygon class="st19" points="58.4,83.5 93,103.1 127.4,83.2 92.3,65 							"/>
						</g>
					</g>
				</g>
			</g>
		</g>
		<g>
			<g>
				<g>
					<g>
						<line class="st20" x1="154.2" y1="192.9" x2="109.9" y2="167.1"/>
						<polygon class="st20" points="109,165.3 109.2,168.3 153.5,194.1 153.3,191.1 						"/>
					</g>
				</g>
				<g>
					<g>
						<polygon class="st20" points="109,46.9 109.2,49.8 153.5,75.6 153.3,72.6 						"/>
					</g>
				</g>
				<g>
					<g>
						<polygon class="st20" points="109,56.4 109.2,59.3 153.5,85.1 153.3,82.1 						"/>
					</g>
				</g>
				<g>
					<g>
						<polygon class="st20" points="109,65.9 109.2,68.8 153.5,94.6 153.3,91.6 						"/>
					</g>
				</g>
				<g>
					<g>
						<polygon class="st20" points="109,75.3 109.2,78.3 153.5,104.1 153.3,101.1 						"/>
					</g>
				</g>
				<g>
					<g>
						<polygon class="st20" points="109,84.4 109.2,87.4 153.5,113.1 153.3,110.2 						"/>
					</g>
				</g>
				<g>
					<g>
						<polygon class="st20" points="109,93.9 109.2,96.9 153.5,122.6 153.3,119.7 						"/>
					</g>
				</g>
				<g>
					<g>
						<polygon class="st20" points="109,102.5 109.2,105.4 153.5,131.2 153.3,128.3 						"/>
					</g>
				</g>
				<g>
					<g>
						<polygon class="st20" points="109,111.1 109.2,114 153.5,139.8 153.3,136.8 						"/>
					</g>
				</g>
				<g>
					<g>
						<polygon class="st20" points="109,120.6 109.2,123.5 153.5,149.3 153.3,146.3 						"/>
					</g>
				</g>
				<g>
					<g>
						<polygon class="st20" points="109,129.6 109.2,132.6 153.5,158.3 153.3,155.4 						"/>
					</g>
				</g>
				<g>
					<g>
						<polygon class="st20" points="109,138.2 109.2,141.2 153.5,166.9 153.3,164 						"/>
					</g>
				</g>
				<g>
					<g>
						<polygon class="st20" points="109,147.2 109.2,150.2 153.5,176 153.3,173 						"/>
					</g>
				</g>
				<g>
					<g>
						<polygon class="st20" points="109,156.7 109.2,159.7 153.5,185.5 153.3,182.5 						"/>
					</g>
				</g>
				<g>
					<g>
						<polygon class="st20" points="157,192.5 201.3,166.8 201.6,46.9 157.3,72.6 						"/>
					</g>
				</g>
				<g>
					<polygon class="st20" points="109,40.8 155.2,67 201,40.4 154.9,14 					"/>
				</g>
			</g>
		</g>
	</g>
</g>
</svg>
